<?xml version="1.0" encoding="utf-8"?>
<!-- Generator: Adobe Illustrator 22.0.1, SVG Export Plug-In . SVG Version: 6.00 Build 0)  -->
<svg version="1.1" id="Layer_1" xmlns="http://www.w3.org/2000/svg" xmlns:xlink="http://www.w3.org/1999/xlink" x="0px" y="0px"
	 viewBox="0 0 432 288" style="enable-background:new 0 0 432 288;" xml:space="preserve">
<style type="text/css">
	.st0{fill:#FFFFFF;}
	.st1{fill:#262626;}
	.st2{clip-path:url(#SVGID_2_);fill:none;stroke:#CCCCCC;stroke-linecap:round;stroke-linejoin:round;}
	.st3{clip-path:url(#SVGID_4_);fill:none;stroke:#CCCCCC;stroke-linecap:round;stroke-linejoin:round;}
	.st4{clip-path:url(#SVGID_6_);fill:none;stroke:#CCCCCC;stroke-linecap:round;stroke-linejoin:round;}
	.st5{clip-path:url(#SVGID_8_);fill:none;stroke:#CCCCCC;stroke-linecap:round;stroke-linejoin:round;}
	.st6{clip-path:url(#SVGID_10_);fill:none;stroke:#CCCCCC;stroke-linecap:round;stroke-linejoin:round;}
	.st7{clip-path:url(#SVGID_12_);fill:none;stroke:#CCCCCC;stroke-linecap:round;stroke-linejoin:round;}
	.st8{clip-path:url(#SVGID_14_);fill:none;stroke:#CCCCCC;stroke-linecap:round;stroke-linejoin:round;}
	.st9{clip-path:url(#SVGID_16_);fill:none;stroke:#CCCCCC;stroke-linecap:round;stroke-linejoin:round;}
	.st10{clip-path:url(#SVGID_18_);fill:none;stroke:#CCCCCC;stroke-linecap:round;stroke-linejoin:round;}
	.st11{clip-path:url(#SVGID_20_);fill:#3274A1;stroke:#FFFFFF;}
	.st12{clip-path:url(#SVGID_22_);fill:#3274A1;stroke:#FFFFFF;}
	.st13{clip-path:url(#SVGID_24_);fill:#E1812C;stroke:#FFFFFF;}
	.st14{clip-path:url(#SVGID_26_);fill:#E1812C;stroke:#FFFFFF;}
	.st15{clip-path:url(#SVGID_28_);fill:none;stroke:#424242;stroke-linecap:round;stroke-linejoin:round;}
	.st16{clip-path:url(#SVGID_30_);fill:none;stroke:#424242;stroke-linecap:round;stroke-linejoin:round;}
	.st17{clip-path:url(#SVGID_32_);fill:none;stroke:#424242;stroke-linecap:round;stroke-linejoin:round;}
	.st18{clip-path:url(#SVGID_34_);fill:none;stroke:#424242;stroke-linecap:round;stroke-linejoin:round;}
	.st19{clip-path:url(#SVGID_36_);fill:none;stroke:#424242;stroke-linecap:round;stroke-linejoin:round;}
	.st20{clip-path:url(#SVGID_38_);fill:none;stroke:#424242;stroke-linecap:round;stroke-linejoin:round;}
	.st21{clip-path:url(#SVGID_40_);fill:none;stroke:#424242;stroke-linecap:round;stroke-linejoin:round;}
	.st22{clip-path:url(#SVGID_42_);fill:none;stroke:#424242;stroke-linecap:round;stroke-linejoin:round;}
	.st23{clip-path:url(#SVGID_44_);fill:none;stroke:#424242;stroke-linecap:round;stroke-linejoin:round;}
	.st24{clip-path:url(#SVGID_46_);fill:none;stroke:#424242;stroke-linecap:round;stroke-linejoin:round;}
	.st25{clip-path:url(#SVGID_48_);fill:none;stroke:#424242;stroke-linecap:round;stroke-linejoin:round;}
	.st26{clip-path:url(#SVGID_50_);fill:none;stroke:#424242;stroke-linecap:round;stroke-linejoin:round;}
	.st27{fill:none;stroke:#CCCCCC;stroke-width:1.25;stroke-linecap:square;}
	.st28{opacity:0.8;fill:#FFFFFF;stroke:#CCCCCC;enable-background:new    ;}
	.st29{fill:#3274A1;stroke:#FFFFFF;}
	.st30{fill:#E1812C;stroke:#FFFFFF;}
</style>
<g id="figure_1">
	<g id="axes_1">
		<g id="patch_2">
			<path class="st0" d="M71.7,237.2h334.8V19.7H71.7V237.2z"/>
		</g>
		<g id="matplotlib.axis_1">
			<g id="xtick_1">
				<g id="text_1">
					<g transform="translate(112.025312 269.373594)scale(0.11 -0.11)">
						<g>
							<path id="ArialMT-84" class="st1" d="M186.7,134.9V198h-23.6v8.4h56.7V198h-23.7v-63.1H186.7z"/>
						</g>
						<g>
							<path id="ArialMT-114" class="st1" d="M228.3,134.9v51.9h7.9v-7.9c2,3.7,3.9,6.1,5.6,7.3c1.7,1.2,3.6,1.8,5.6,1.8
								c3,0,6-0.9,9-2.8l-3-8.2c-2.1,1.3-4.3,1.9-6.4,1.9c-1.9,0-3.7-0.6-5.2-1.7s-2.6-2.8-3.3-4.8c-1-3.1-1.5-6.5-1.5-10.2v-27.2
								H228.3z"/>
						</g>
						<g>
							<path id="ArialMT-97" class="st1" d="M295.5,141.2c-3.3-2.8-6.4-4.7-9.4-5.9c-3-1.1-6.2-1.7-9.7-1.7
								c-5.7,0-10.1,1.4-13.1,4.2s-4.6,6.3-4.6,10.7c0,2.5,0.6,4.9,1.7,7c1.2,2.1,2.7,3.8,4.5,5.1c1.9,1.3,4,2.2,6.3,2.9
								c1.7,0.5,4.3,0.9,7.8,1.3c7.1,0.8,12.3,1.8,15.7,3c0,1.2,0,2,0,2.3c0,3.6-0.8,6.1-2.5,7.6c-2.2,2-5.6,3-10,3
								c-4.1,0-7.2-0.7-9.2-2.2c-2-1.4-3.4-4-4.4-7.7l-8.6,1.2c0.8,3.7,2.1,6.6,3.9,8.9c1.8,2.3,4.4,4,7.8,5.2
								c3.4,1.2,7.3,1.8,11.8,1.8c4.4,0,8-0.5,10.8-1.6c2.8-1,4.8-2.4,6.1-3.9c1.3-1.6,2.2-3.6,2.7-6c0.3-1.5,0.4-4.2,0.4-8.1v-11.7
								c0-8.2,0.2-13.3,0.6-15.5c0.4-2.2,1.1-4.2,2.2-6.2h-9.2C296.4,136.7,295.8,138.8,295.5,141.2z M294.8,160.9
								c-3.2-1.3-8-2.4-14.4-3.3c-3.6-0.5-6.2-1.1-7.7-1.8c-1.5-0.6-2.6-1.6-3.5-2.8c-0.8-1.2-1.2-2.6-1.2-4.2
								c0-2.3,0.9-4.3,2.7-5.9c1.8-1.6,4.4-2.3,7.8-2.3c3.4,0,6.4,0.7,9,2.2c2.6,1.5,4.6,3.5,5.8,6.1c0.9,2,1.4,4.9,1.4,8.8V160.9z"
								/>
						</g>
						<g>
							<path id="ArialMT-100" class="st1" d="M351,134.9v6.5c-3.3-5.1-8.1-7.7-14.5-7.7c-4.1,0-7.9,1.1-11.4,3.4s-6.2,5.5-8.1,9.5
								c-1.9,4.1-2.8,8.8-2.8,14.1c0,5.2,0.9,9.9,2.6,14.1c1.7,4.2,4.3,7.4,7.8,9.7c3.5,2.2,7.3,3.4,11.6,3.4c3.1,0,5.9-0.7,8.3-2
								c2.4-1.3,4.4-3,6-5.1v25.7h8.7v-71.6H351z M323.2,160.7c0-6.6,1.4-11.6,4.2-14.9c2.8-3.3,6.1-4.9,9.9-4.9
								c3.8,0,7.1,1.6,9.8,4.7c2.7,3.1,4,7.9,4,14.4c0,7.1-1.4,12.3-4.1,15.6c-2.7,3.3-6.1,5-10.1,5c-3.9,0-7.2-1.6-9.8-4.8
								C324.5,172.6,323.2,167.6,323.2,160.7z"/>
						</g>
						<g>
							<path id="ArialMT-105" class="st1" d="M373,196.3v10.1h8.8v-10.1H373z M373,134.9v51.9h8.8v-51.9H373z"/>
						</g>
						<g>
							<path id="ArialMT-116" class="st1" d="M414.3,142.7l1.3-7.8c-2.5-0.5-4.7-0.8-6.6-0.8c-3.2,0-5.7,0.5-7.4,1.5
								c-1.8,1-3,2.3-3.7,4c-0.7,1.6-1.1,5.1-1.1,10.4v29.8h-6.4v6.8h6.4v12.8l8.7,5.3v-18.1h8.8v-6.8h-8.8v-30.3
								c0-2.5,0.2-4.1,0.5-4.8c0.3-0.7,0.8-1.3,1.5-1.7c0.7-0.4,1.7-0.6,3-0.6C411.5,142.4,412.7,142.5,414.3,142.7z"/>
						</g>
						<g>
							<path id="ArialMT-105_1_" class="st1" d="M423,196.3v10.1h8.8v-10.1H423z M423,134.9v51.9h8.8v-51.9H423z"/>
						</g>
						<g>
							<path id="ArialMT-111" class="st1" d="M441.9,160.8c0,9.6,2.7,16.7,8,21.3c4.5,3.8,9.9,5.8,16.3,5.8c7.1,0,12.9-2.3,17.5-7
								c4.5-4.7,6.8-11.1,6.8-19.4c0-6.7-1-11.9-3-15.8c-2-3.8-4.9-6.8-8.8-8.9c-3.8-2.1-8-3.2-12.5-3.2c-7.3,0-13.1,2.3-17.6,7
								C444.1,145.3,441.9,152,441.9,160.8z M450.9,160.8c0-6.6,1.4-11.6,4.3-14.9c2.9-3.3,6.5-5,10.9-5c4.4,0,8,1.7,10.9,5
								c2.9,3.3,4.3,8.4,4.3,15.2c0,6.4-1.5,11.3-4.4,14.6c-2.9,3.3-6.5,5-10.9,5c-4.4,0-8-1.6-10.9-4.9
								C452.4,172.4,450.9,167.4,450.9,160.8z"/>
						</g>
						<g>
							<path id="ArialMT-110" class="st1" d="M500.8,134.9v51.9h7.9v-7.4c3.8,5.7,9.3,8.5,16.5,8.5c3.1,0,6-0.6,8.6-1.7
								s4.6-2.6,5.9-4.4c1.3-1.8,2.2-4,2.7-6.5c0.3-1.6,0.5-4.5,0.5-8.5v-31.9h-8.8v31.5c0,3.6-0.3,6.3-1,8
								c-0.7,1.8-1.9,3.2-3.6,4.2c-1.7,1.1-3.8,1.6-6.1,1.6c-3.8,0-7-1.2-9.7-3.6s-4.1-6.9-4.1-13.5v-28.3H500.8z"/>
						</g>
						<g>
							<path id="ArialMT-97_1_" class="st1" d="M590.2,141.2c-3.3-2.8-6.4-4.7-9.4-5.9c-3-1.1-6.2-1.7-9.7-1.7
								c-5.7,0-10.1,1.4-13.1,4.2s-4.6,6.3-4.6,10.7c0,2.5,0.6,4.9,1.7,7c1.2,2.1,2.7,3.8,4.5,5.1c1.9,1.3,4,2.2,6.3,2.9
								c1.7,0.5,4.3,0.9,7.8,1.3c7.1,0.8,12.3,1.8,15.7,3c0,1.2,0,2,0,2.3c0,3.6-0.8,6.1-2.5,7.6c-2.2,2-5.6,3-10,3
								c-4.1,0-7.2-0.7-9.2-2.2c-2-1.4-3.4-4-4.4-7.7l-8.6,1.2c0.8,3.7,2.1,6.6,3.9,8.9c1.8,2.3,4.4,4,7.8,5.2
								c3.4,1.2,7.3,1.8,11.8,1.8c4.4,0,8-0.5,10.8-1.6c2.8-1,4.8-2.4,6.1-3.9c1.3-1.6,2.2-3.6,2.7-6c0.3-1.5,0.4-4.2,0.4-8.1v-11.7
								c0-8.2,0.2-13.3,0.6-15.5c0.4-2.2,1.1-4.2,2.2-6.2H592C591.1,136.7,590.5,138.8,590.2,141.2z M589.5,160.9
								c-3.2-1.3-8-2.4-14.4-3.3c-3.6-0.5-6.2-1.1-7.7-1.8c-1.5-0.6-2.6-1.6-3.5-2.8c-0.8-1.2-1.2-2.6-1.2-4.2
								c0-2.3,0.9-4.3,2.7-5.9c1.8-1.6,4.4-2.3,7.8-2.3c3.4,0,6.4,0.7,9,2.2c2.6,1.5,4.6,3.5,5.8,6.1c0.9,2,1.4,4.9,1.4,8.8V160.9z"
								/>
						</g>
						<g>
							<path id="ArialMT-108" class="st1" d="M611.8,134.9v71.6h8.8v-71.6H611.8z"/>
						</g>
					</g>
				</g>
			</g>
			<g id="xtick_2">
				<g id="text_2">
					<g transform="translate(276.366797 269.373594)scale(0.11 -0.11)">
						<g>
							<path id="ArialMT-90" class="st1" d="M162.8,134.9v8.8l36.7,45.8c2.6,3.2,5.1,6.1,7.4,8.5h-39.9v8.4h51.3V198L178,148.3
								l-4.3-5h45.7v-8.5H162.8z"/>
						</g>
						<g>
							<path id="ArialMT-111_1_" class="st1" d="M225.2,160.8c0,9.6,2.7,16.7,8,21.3c4.5,3.8,9.9,5.8,16.3,5.8
								c7.1,0,12.9-2.3,17.5-7c4.5-4.7,6.8-11.1,6.8-19.4c0-6.7-1-11.9-3-15.8c-2-3.8-4.9-6.8-8.8-8.9c-3.8-2.1-8-3.2-12.5-3.2
								c-7.3,0-13.1,2.3-17.6,7C227.4,145.3,225.2,152,225.2,160.8z M234.2,160.8c0-6.6,1.4-11.6,4.3-14.9c2.9-3.3,6.5-5,10.9-5
								c4.4,0,8,1.7,10.9,5c2.9,3.3,4.3,8.4,4.3,15.2c0,6.4-1.5,11.3-4.4,14.6c-2.9,3.3-6.5,5-10.9,5c-4.4,0-8-1.6-10.9-4.9
								C235.7,172.4,234.2,167.4,234.2,160.8z"/>
						</g>
						<g>
							<path id="ArialMT-111_2_" class="st1" d="M280.8,160.8c0,9.6,2.7,16.7,8,21.3c4.5,3.8,9.9,5.8,16.3,5.8
								c7.1,0,12.9-2.3,17.5-7c4.5-4.7,6.8-11.1,6.8-19.4c0-6.7-1-11.9-3-15.8c-2-3.8-4.9-6.8-8.8-8.9c-3.8-2.1-8-3.2-12.5-3.2
								c-7.3,0-13.1,2.3-17.6,7C283,145.3,280.8,152,280.8,160.8z M289.8,160.8c0-6.6,1.4-11.6,4.3-14.9c2.9-3.3,6.5-5,10.9-5
								c4.4,0,8,1.7,10.9,5c2.9,3.3,4.3,8.4,4.3,15.2c0,6.4-1.5,11.3-4.4,14.6c-2.9,3.3-6.5,5-10.9,5c-4.4,0-8-1.6-10.9-4.9
								C291.3,172.4,289.8,167.4,289.8,160.8z"/>
						</g>
						<g>
							<path id="ArialMT-109" class="st1" d="M339.7,134.9v51.9h7.9v-7.3c1.6,2.5,3.8,4.6,6.5,6.1c2.7,1.6,5.8,2.3,9.2,2.3
								c3.8,0,7-0.8,9.5-2.4c2.5-1.6,4.2-3.8,5.2-6.7c4.1,6.1,9.4,9.1,16,9.1c5.1,0,9.1-1.4,11.9-4.3c2.8-2.8,4.2-7.2,4.2-13.2
								v-35.6h-8.8v32.7c0,3.5-0.3,6-0.9,7.6c-0.6,1.6-1.6,2.8-3.1,3.7c-1.5,0.9-3.2,1.4-5.3,1.4c-3.6,0-6.7-1.2-9.1-3.6
								c-2.4-2.4-3.6-6.3-3.6-11.6v-30.1h-8.8v33.7c0,3.9-0.7,6.8-2.2,8.8c-1.4,2-3.8,2.9-7,2.9c-2.5,0-4.8-0.7-6.9-2
								c-2.1-1.3-3.6-3.2-4.6-5.7c-0.9-2.5-1.4-6.1-1.4-10.8v-26.9H339.7z"/>
						</g>
						<g>
							<path id="ArialMT-66" class="st1" d="M423.7,134.9v71.6h26.9c5.5,0,9.9-0.7,13.2-2.2c3.3-1.4,5.9-3.7,7.8-6.7
								c1.9-3,2.8-6.2,2.8-9.5c0-3.1-0.8-5.9-2.5-8.6c-1.7-2.7-4.2-4.9-7.5-6.5c4.3-1.3,7.6-3.4,10-6.5c2.3-3.1,3.5-6.7,3.5-10.8
								c0-3.4-0.7-6.5-2.1-9.4c-1.4-2.9-3.2-5.1-5.2-6.7c-2.1-1.6-4.7-2.7-7.8-3.5c-3.1-0.8-7-1.2-11.5-1.2H423.7z M433.2,176.4
								h15.5c4.2,0,7.2,0.3,9,0.8c2.4,0.7,4.2,1.9,5.4,3.6c1.2,1.7,1.8,3.8,1.8,6.3c0,2.4-0.6,4.5-1.7,6.3c-1.1,1.8-2.8,3.1-4.9,3.7
								c-2.1,0.7-5.7,1-10.9,1h-14.3V176.4z M433.2,143.3H451c3.1,0,5.2,0.1,6.4,0.3c2.2,0.4,4,1,5.5,1.9c1.5,0.9,2.7,2.2,3.6,4
								c0.9,1.7,1.4,3.8,1.4,6c0,2.7-0.7,5-2,7c-1.4,2-3.3,3.4-5.7,4.2c-2.4,0.8-5.9,1.2-10.5,1.2h-16.5V143.3z"/>
						</g>
						<g>
							<path id="ArialMT-111_3_" class="st1" d="M486.4,160.8c0,9.6,2.7,16.7,8,21.3c4.5,3.8,9.9,5.8,16.3,5.8
								c7.1,0,12.9-2.3,17.5-7c4.5-4.7,6.8-11.1,6.8-19.4c0-6.7-1-11.9-3-15.8c-2-3.8-4.9-6.8-8.8-8.9c-3.8-2.1-8-3.2-12.5-3.2
								c-7.3,0-13.1,2.3-17.6,7C488.6,145.3,486.4,152,486.4,160.8z M495.4,160.8c0-6.6,1.4-11.6,4.3-14.9c2.9-3.3,6.5-5,10.9-5
								c4.4,0,8,1.7,10.9,5c2.9,3.3,4.3,8.4,4.3,15.2c0,6.4-1.5,11.3-4.4,14.6c-2.9,3.3-6.5,5-10.9,5c-4.4,0-8-1.6-10.9-4.9
								C496.9,172.4,495.4,167.4,495.4,160.8z"/>
						</g>
						<g>
							<path id="ArialMT-97_2_" class="st1" d="M579.1,141.2c-3.3-2.8-6.4-4.7-9.4-5.9c-3-1.1-6.2-1.7-9.7-1.7
								c-5.7,0-10.1,1.4-13.1,4.2s-4.6,6.3-4.6,10.7c0,2.5,0.6,4.9,1.7,7c1.2,2.1,2.7,3.8,4.5,5.1c1.9,1.3,4,2.2,6.3,2.9
								c1.7,0.5,4.3,0.9,7.8,1.3c7.1,0.8,12.3,1.8,15.7,3c0,1.2,0,2,0,2.3c0,3.6-0.8,6.1-2.5,7.6c-2.2,2-5.6,3-10,3
								c-4.1,0-7.2-0.7-9.2-2.2c-2-1.4-3.4-4-4.4-7.7l-8.6,1.2c0.8,3.7,2.1,6.6,3.9,8.9c1.8,2.3,4.4,4,7.8,5.2
								c3.4,1.2,7.3,1.8,11.8,1.8c4.4,0,8-0.5,10.8-1.6c2.8-1,4.8-2.4,6.1-3.9c1.3-1.6,2.2-3.6,2.7-6c0.3-1.5,0.4-4.2,0.4-8.1v-11.7
								c0-8.2,0.2-13.3,0.6-15.5c0.4-2.2,1.1-4.2,2.2-6.2h-9.2C580,136.7,579.4,138.8,579.1,141.2z M578.4,160.9
								c-3.2-1.3-8-2.4-14.4-3.3c-3.6-0.5-6.2-1.1-7.7-1.8c-1.5-0.6-2.6-1.6-3.5-2.8c-0.8-1.2-1.2-2.6-1.2-4.2
								c0-2.3,0.9-4.3,2.7-5.9c1.8-1.6,4.4-2.3,7.8-2.3c3.4,0,6.4,0.7,9,2.2c2.6,1.5,4.6,3.5,5.8,6.1c0.9,2,1.4,4.9,1.4,8.8V160.9z"
								/>
						</g>
						<g>
							<path id="ArialMT-114_1_" class="st1" d="M600.8,134.9v51.9h7.9v-7.9c2,3.7,3.9,6.1,5.6,7.3c1.7,1.2,3.6,1.8,5.6,1.8
								c3,0,6-0.9,9-2.8l-3-8.2c-2.1,1.3-4.3,1.9-6.4,1.9c-1.9,0-3.7-0.6-5.2-1.7s-2.6-2.8-3.3-4.8c-1-3.1-1.5-6.5-1.5-10.2v-27.2
								H600.8z"/>
						</g>
						<g>
							<path id="ArialMT-100_1_" class="st1" d="M667.8,134.9v6.5c-3.3-5.1-8.1-7.7-14.5-7.7c-4.1,0-7.9,1.1-11.4,3.4
								s-6.2,5.5-8.1,9.5c-1.9,4.1-2.8,8.8-2.8,14.1c0,5.2,0.9,9.9,2.6,14.1c1.7,4.2,4.3,7.4,7.8,9.7c3.5,2.2,7.3,3.4,11.6,3.4
								c3.1,0,5.9-0.7,8.3-2c2.4-1.3,4.4-3,6-5.1v25.7h8.7v-71.6H667.8z M640.1,160.7c0-6.6,1.4-11.6,4.2-14.9
								c2.8-3.3,6.1-4.9,9.9-4.9c3.8,0,7.1,1.6,9.8,4.7c2.7,3.1,4,7.9,4,14.4c0,7.1-1.4,12.3-4.1,15.6c-2.7,3.3-6.1,5-10.1,5
								c-3.9,0-7.2-1.6-9.8-4.8C641.4,172.6,640.1,167.6,640.1,160.7z"/>
						</g>
					</g>
				</g>
			</g>
			<g id="text_3">
				<g transform="translate(180.718125 284.149219)scale(0.12 -0.12)">
					<g>
						<path id="ArialMT-75" class="st1" d="M154.7,123.6v71.6h9.5v-35.5l35.5,35.5h12.8l-30-29l31.3-42.6h-12.5l-25.5,36.2
							l-11.7-11.4v-24.8H154.7z"/>
					</g>
					<g>
						<path id="ArialMT-101" class="st1" d="M256.2,140.3l9.1-1.1c-1.4-5.3-4.1-9.4-8-12.4c-3.9-2.9-8.8-4.4-14.8-4.4
							c-7.6,0-13.6,2.3-18,7c-4.4,4.7-6.7,11.2-6.7,19.7c0,8.7,2.2,15.5,6.7,20.3c4.5,4.8,10.3,7.2,17.5,7.2c6.9,0,12.6-2.4,17-7.1
							c4.4-4.7,6.6-11.4,6.6-19.9c0-0.5,0-1.3,0-2.3h-38.7c0.3-5.7,1.9-10.1,4.8-13.1c2.9-3,6.5-4.5,10.8-4.5c3.2,0,6,0.8,8.2,2.5
							C253,133.9,254.8,136.6,256.2,140.3z M227.3,154.5h29c-0.4,4.4-1.5,7.6-3.3,9.8c-2.8,3.4-6.4,5.1-10.9,5.1
							c-4,0-7.4-1.3-10.2-4S227.6,159.1,227.3,154.5z"/>
					</g>
					<g>
						<path id="ArialMT-121" class="st1" d="M275.9,103.6l-1,8.2c1.9-0.5,3.6-0.8,5-0.8c2,0,3.5,0.3,4.7,1c1.2,0.6,2.1,1.6,2.9,2.7
							c0.6,0.9,1.4,3.1,2.7,6.5c0.2,0.5,0.4,1.2,0.8,2.2l-19.7,52h9.5l10.8-30c1.4-3.8,2.7-7.8,3.8-12c1,4,2.2,8,3.6,11.8l11.1,30.2
							h8.8l-19.7-52.7c-2.1-5.7-3.8-9.6-4.9-11.8c-1.6-2.9-3.4-5-5.4-6.4c-2-1.4-4.4-2-7.2-2C279.9,102.6,278,102.9,275.9,103.6z"/>
					</g>
					<g>
						<path id="ArialMT-98" class="st1" d="M334.4,123.6h-8.2v71.6h8.8v-25.5c3.7,4.7,8.5,7,14.2,7c3.2,0,6.2-0.6,9-1.9
							c2.9-1.3,5.2-3.1,7-5.4c1.8-2.3,3.3-5.1,4.3-8.4c1-3.3,1.6-6.8,1.6-10.5c0-8.9-2.2-15.8-6.6-20.6c-4.4-4.8-9.7-7.3-15.8-7.3
							c-6.1,0-10.9,2.6-14.4,7.7V123.6z M334.3,149.9c0-6.2,0.8-10.7,2.5-13.5c2.8-4.5,6.5-6.8,11.2-6.8c3.8,0,7.2,1.7,10,5
							c2.8,3.3,4.2,8.3,4.2,14.9c0,6.8-1.3,11.8-4,15s-5.9,4.8-9.7,4.8c-3.8,0-7.2-1.7-10-5S334.3,156.3,334.3,149.9z"/>
					</g>
					<g>
						<path id="ArialMT-111_4_" class="st1" d="M378.6,149.5c0,9.6,2.7,16.7,8,21.3c4.5,3.8,9.9,5.8,16.3,5.8c7.1,0,12.9-2.3,17.5-7
							c4.5-4.7,6.8-11.1,6.8-19.4c0-6.7-1-11.9-3-15.8c-2-3.8-4.9-6.8-8.8-8.9c-3.8-2.1-8-3.2-12.5-3.2c-7.3,0-13.1,2.3-17.6,7
							C380.9,134.1,378.6,140.8,378.6,149.5z M387.7,149.5c0-6.6,1.4-11.6,4.3-14.9c2.9-3.3,6.5-5,10.9-5c4.4,0,8,1.7,10.9,5
							c2.9,3.3,4.3,8.4,4.3,15.2c0,6.4-1.5,11.3-4.4,14.6c-2.9,3.3-6.5,5-10.9,5c-4.4,0-8-1.6-10.9-4.9
							C389.1,161.1,387.7,156.2,387.7,149.5z"/>
					</g>
					<g>
						<path id="ArialMT-97_3_" class="st1" d="M471.4,130c-3.3-2.8-6.4-4.7-9.4-5.9c-3-1.1-6.2-1.7-9.7-1.7
							c-5.7,0-10.1,1.4-13.1,4.2s-4.6,6.3-4.6,10.7c0,2.5,0.6,4.9,1.7,7c1.2,2.1,2.7,3.8,4.5,5.1c1.9,1.3,4,2.2,6.3,2.9
							c1.7,0.5,4.3,0.9,7.8,1.3c7.1,0.8,12.3,1.8,15.7,3c0,1.2,0,2,0,2.3c0,3.6-0.8,6.1-2.5,7.6c-2.2,2-5.6,3-10,3
							c-4.1,0-7.2-0.7-9.2-2.2s-3.4-4-4.4-7.7l-8.6,1.2c0.8,3.7,2.1,6.6,3.9,8.9c1.8,2.3,4.4,4,7.8,5.2c3.4,1.2,7.3,1.8,11.8,1.8
							c4.4,0,8-0.5,10.8-1.6c2.8-1,4.8-2.4,6.1-3.9c1.3-1.6,2.2-3.6,2.7-6c0.3-1.5,0.4-4.2,0.4-8.1v-11.7c0-8.2,0.2-13.3,0.6-15.5
							c0.4-2.2,1.1-4.2,2.2-6.2h-9.2C472.2,125.4,471.6,127.6,471.4,130z M470.6,149.6c-3.2-1.3-8-2.4-14.4-3.3
							c-3.6-0.5-6.2-1.1-7.7-1.8c-1.5-0.6-2.6-1.6-3.5-2.8c-0.8-1.2-1.2-2.6-1.2-4.2c0-2.3,0.9-4.3,2.7-5.9c1.8-1.6,4.4-2.3,7.8-2.3
							c3.4,0,6.4,0.7,9,2.2c2.6,1.5,4.6,3.5,5.8,6.1c0.9,2,1.4,4.9,1.4,8.8V149.6z"/>
					</g>
					<g>
						<path id="ArialMT-114_2_" class="st1" d="M493,123.6v51.9h7.9v-7.9c2,3.7,3.9,6.1,5.6,7.3c1.7,1.2,3.6,1.8,5.6,1.8
							c3,0,6-0.9,9-2.8l-3-8.2c-2.1,1.3-4.3,1.9-6.4,1.9c-1.9,0-3.7-0.6-5.2-1.7s-2.6-2.8-3.3-4.8c-1-3.1-1.5-6.5-1.5-10.2v-27.2
							H493z"/>
					</g>
					<g>
						<path id="ArialMT-100_2_" class="st1" d="M560.1,123.6v6.5c-3.3-5.1-8.1-7.7-14.5-7.7c-4.1,0-7.9,1.1-11.4,3.4
							s-6.2,5.5-8.1,9.5c-1.9,4.1-2.8,8.8-2.8,14.1c0,5.2,0.9,9.9,2.6,14.1c1.7,4.2,4.3,7.4,7.8,9.7c3.5,2.2,7.3,3.4,11.6,3.4
							c3.1,0,5.9-0.7,8.3-2c2.4-1.3,4.4-3,6-5.1v25.7h8.7v-71.6H560.1z M532.3,149.5c0-6.6,1.4-11.6,4.2-14.9
							c2.8-3.3,6.1-4.9,9.9-4.9c3.8,0,7.1,1.6,9.8,4.7c2.7,3.1,4,7.9,4,14.4c0,7.1-1.4,12.3-4.1,15.6c-2.7,3.3-6.1,5-10.1,5
							c-3.9,0-7.2-1.6-9.8-4.8C533.6,161.4,532.3,156.4,532.3,149.5z"/>
					</g>
					<g>
						<path id="ArialMT-32" class="st1" d="M575.4,123.6"/>
					</g>
					<g>
						<path id="ArialMT-84_1_" class="st1" d="M629.1,123.6v63.1h-23.6v8.4h56.7v-8.4h-23.7v-63.1H629.1z"/>
					</g>
					<g>
						<path id="ArialMT-121_1_" class="st1" d="M670.4,103.6l-1,8.2c1.9-0.5,3.6-0.8,5-0.8c2,0,3.5,0.3,4.7,1
							c1.2,0.6,2.1,1.6,2.9,2.7c0.6,0.9,1.4,3.1,2.7,6.5c0.2,0.5,0.4,1.2,0.8,2.2l-19.7,52h9.5l10.8-30c1.4-3.8,2.7-7.8,3.8-12
							c1,4,2.2,8,3.6,11.8l11.1,30.2h8.8l-19.7-52.7c-2.1-5.7-3.8-9.6-4.9-11.8c-1.6-2.9-3.4-5-5.4-6.4c-2-1.4-4.4-2-7.2-2
							C674.4,102.6,672.5,102.9,670.4,103.6z"/>
					</g>
					<g>
						<path id="ArialMT-112" class="st1" d="M720.8,103.7v71.7h8v-6.7c1.9,2.6,4,4.6,6.4,5.9c2.4,1.3,5.3,2,8.6,2
							c4.4,0,8.3-1.1,11.7-3.4c3.4-2.3,5.9-5.5,7.7-9.7c1.7-4.1,2.6-8.7,2.6-13.6c0-5.3-1-10.1-2.9-14.3c-1.9-4.2-4.7-7.5-8.3-9.8
							c-3.6-2.3-7.4-3.4-11.5-3.4c-2.9,0-5.6,0.6-7.9,1.9c-2.3,1.2-4.2,2.8-5.7,4.7v-25.2H720.8z M728.8,149.3
							c0-6.7,1.3-11.6,4-14.8c2.7-3.2,6-4.8,9.8-4.8c3.9,0,7.2,1.7,10,5c2.8,3.3,4.2,8.4,4.2,15.4c0,6.6-1.4,11.5-4.1,14.8
							c-2.7,3.3-6,4.9-9.7,4.9c-3.8,0-7.1-1.8-10-5.2C730.2,161,728.8,155.9,728.8,149.3z"/>
					</g>
					<g>
						<path id="ArialMT-101_1_" class="st1" d="M811.9,140.3l9.1-1.1c-1.4-5.3-4.1-9.4-8-12.4c-3.9-2.9-8.8-4.4-14.8-4.4
							c-7.6,0-13.6,2.3-18,7c-4.4,4.7-6.7,11.2-6.7,19.7c0,8.7,2.2,15.5,6.7,20.3c4.5,4.8,10.3,7.2,17.5,7.2c6.9,0,12.6-2.4,17-7.1
							c4.4-4.7,6.6-11.4,6.6-19.9c0-0.5,0-1.3,0-2.3h-38.7c0.3-5.7,1.9-10.1,4.8-13.1c2.9-3,6.5-4.5,10.8-4.5c3.2,0,6,0.8,8.2,2.5
							C808.8,133.9,810.6,136.6,811.9,140.3z M783.1,154.5h29c-0.4,4.4-1.5,7.6-3.3,9.8c-2.8,3.4-6.4,5.1-10.9,5.1
							c-4,0-7.4-1.3-10.2-4S783.4,159.1,783.1,154.5z"/>
					</g>
				</g>
			</g>
		</g>
		<g id="matplotlib.axis_2">
			<g id="ytick_1">
				<g id="line2d_1">
					<g>
						<defs>
							<rect id="SVGID_1_" x="71.7" y="19.7" width="334.8" height="217.4"/>
						</defs>
						<clipPath id="SVGID_2_">
							<use xlink:href="#SVGID_1_"  style="overflow:visible;"/>
						</clipPath>
						<path class="st2" d="M71.7,237.2h334.8"/>
					</g>
				</g>
				<g id="text_4">
					<g transform="translate(29.21 255.936797)scale(0.11 -0.11)">
						<g>
							<path id="ArialMT-48" class="st1" d="M164.9,170.2c0,8.5,0.9,15.3,2.6,20.4c1.7,5.2,4.3,9.1,7.8,11.9c3.4,2.8,7.8,4.2,13,4.2
								c3.8,0,7.2-0.8,10.1-2.3c2.9-1.5,5.3-3.8,7.2-6.7c1.9-2.9,3.4-6.5,4.5-10.6c1.1-4.2,1.6-9.8,1.6-16.9
								c0-8.4-0.9-15.2-2.6-20.3c-1.7-5.2-4.3-9.1-7.7-12c-3.4-2.8-7.8-4.2-13-4.2c-6.9,0-12.3,2.5-16.2,7.4
								C167.3,147,164.9,156.7,164.9,170.2z M174,170.2c0-11.8,1.4-19.6,4.1-23.5c2.8-3.9,6.1-5.8,10.2-5.8c4,0,7.4,2,10.2,5.9
								s4.1,11.7,4.1,23.4c0,11.8-1.4,19.6-4.1,23.5c-2.8,3.9-6.2,5.8-10.3,5.8c-4,0-7.3-1.7-9.7-5.1C175.5,190,174,181.9,174,170.2
								z"/>
						</g>
						<g>
							<path id="ArialMT-46" class="st1" d="M225.5,134.9v10h10v-10H225.5z"/>
						</g>
						<g>
							<path id="ArialMT-48_1_" class="st1" d="M248.3,170.2c0,8.5,0.9,15.3,2.6,20.4c1.7,5.2,4.3,9.1,7.7,11.9
								c3.4,2.8,7.8,4.2,13,4.2c3.8,0,7.2-0.8,10.1-2.3c2.9-1.5,5.3-3.8,7.2-6.7c1.9-2.9,3.4-6.5,4.5-10.6c1.1-4.2,1.6-9.8,1.6-16.9
								c0-8.4-0.9-15.2-2.6-20.3c-1.7-5.2-4.3-9.1-7.7-12c-3.4-2.8-7.8-4.2-13-4.2c-6.9,0-12.3,2.5-16.2,7.4
								C250.7,147,248.3,156.7,248.3,170.2z M257.4,170.2c0-11.8,1.4-19.6,4.1-23.5c2.8-3.9,6.1-5.8,10.2-5.8c4,0,7.4,2,10.2,5.9
								s4.1,11.7,4.1,23.4c0,11.8-1.4,19.6-4.1,23.5c-2.8,3.9-6.2,5.8-10.3,5.8c-4,0-7.3-1.7-9.7-5.1
								C258.9,190,257.4,181.9,257.4,170.2z"/>
						</g>
					</g>
				</g>
			</g>
			<g id="ytick_2">
				<g id="line2d_2">
					<g>
						<defs>
							<rect id="SVGID_3_" x="71.7" y="19.7" width="334.8" height="217.4"/>
						</defs>
						<clipPath id="SVGID_4_">
							<use xlink:href="#SVGID_3_"  style="overflow:visible;"/>
						</clipPath>
						<path class="st3" d="M71.7,210h334.8"/>
					</g>
				</g>
				<g id="text_5">
					<g transform="translate(29.21 228.80718)scale(0.11 -0.11)">
						<g>
							<path id="ArialMT-50" class="st1" d="M211.1,143.3v-8.5h-47.3c-0.1,2.1,0.3,4.2,1,6.1c1.2,3.2,3.1,6.4,5.8,9.5
								c2.7,3.1,6.5,6.7,11.5,10.8c7.8,6.4,13,11.4,15.8,15.2c2.7,3.7,4.1,7.3,4.1,10.6c0,3.5-1.2,6.4-3.8,8.8
								c-2.5,2.4-5.7,3.6-9.7,3.6c-4.2,0-7.6-1.3-10.2-3.8c-2.5-2.5-3.8-6-3.9-10.5l-9,0.9c0.6,6.7,2.9,11.9,7,15.4
								c4,3.5,9.5,5.3,16.3,5.3c6.9,0,12.3-1.9,16.3-5.7c4-3.8,6-8.5,6-14.2c0-2.9-0.6-5.7-1.8-8.5c-1.2-2.8-3.1-5.7-5.8-8.7
								s-7.2-7.3-13.5-12.6c-5.3-4.4-8.7-7.4-10.2-9c-1.5-1.6-2.7-3.2-3.7-4.8H211.1z"/>
						</g>
						<g>
							<path id="ArialMT-46_1_" class="st1" d="M225.5,134.9v10h10v-10H225.5z"/>
						</g>
						<g>
							<path id="ArialMT-53" class="st1" d="M248.3,153.6l9.2,0.8c0.7-4.5,2.3-7.9,4.8-10.1c2.5-2.3,5.5-3.4,9-3.4
								c4.2,0,7.8,1.6,10.7,4.8c2.9,3.2,4.4,7.4,4.4,12.7c0,5-1.4,9-4.2,11.9c-2.8,2.9-6.5,4.4-11.1,4.4c-2.8,0-5.4-0.6-7.7-1.9
								c-2.3-1.3-4.1-2.9-5.4-5l-8.2,1.1l6.9,36.8h35.6v-8.4h-28.6l-3.8-19.2c4.3,3,8.8,4.5,13.5,4.5c6.2,0,11.5-2.2,15.8-6.5
								c4.3-4.3,6.5-9.9,6.5-16.7c0-6.5-1.9-12.1-5.7-16.8c-4.6-5.8-10.9-8.7-18.8-8.7c-6.5,0-11.8,1.8-16,5.5
								C251.3,142.8,248.9,147.6,248.3,153.6z"/>
						</g>
					</g>
				</g>
			</g>
			<g id="ytick_3">
				<g id="line2d_3">
					<g>
						<defs>
							<rect id="SVGID_5_" x="71.7" y="19.7" width="334.8" height="217.4"/>
						</defs>
						<clipPath id="SVGID_6_">
							<use xlink:href="#SVGID_5_"  style="overflow:visible;"/>
						</clipPath>
						<path class="st4" d="M71.7,182.9h334.8"/>
					</g>
				</g>
				<g id="text_6">
					<g transform="translate(29.21 201.677563)scale(0.11 -0.11)">
						<g>
							<path id="ArialMT-53_1_" class="st1" d="M164.9,153.6l9.2,0.8c0.7-4.5,2.3-7.9,4.8-10.1c2.5-2.3,5.5-3.4,9-3.4
								c4.2,0,7.8,1.6,10.7,4.8c2.9,3.2,4.4,7.4,4.4,12.7c0,5-1.4,9-4.2,11.9c-2.8,2.9-6.5,4.4-11.1,4.4c-2.8,0-5.4-0.6-7.7-1.9
								c-2.3-1.3-4.1-2.9-5.4-5l-8.2,1.1l6.9,36.8H209v-8.4h-28.6l-3.8-19.2c4.3,3,8.8,4.5,13.5,4.5c6.2,0,11.5-2.2,15.8-6.5
								c4.3-4.3,6.5-9.9,6.5-16.7c0-6.5-1.9-12.1-5.7-16.8c-4.6-5.8-10.9-8.7-18.8-8.7c-6.5,0-11.8,1.8-16,5.5
								C167.9,142.8,165.5,147.6,164.9,153.6z"/>
						</g>
						<g>
							<path id="ArialMT-46_2_" class="st1" d="M225.5,134.9v10h10v-10H225.5z"/>
						</g>
						<g>
							<path id="ArialMT-48_2_" class="st1" d="M248.3,170.2c0,8.5,0.9,15.3,2.6,20.4c1.7,5.2,4.3,9.1,7.7,11.9
								c3.4,2.8,7.8,4.2,13,4.2c3.8,0,7.2-0.8,10.1-2.3c2.9-1.5,5.3-3.8,7.2-6.7c1.9-2.9,3.4-6.5,4.5-10.6c1.1-4.2,1.6-9.8,1.6-16.9
								c0-8.4-0.9-15.2-2.6-20.3c-1.7-5.2-4.3-9.1-7.7-12c-3.4-2.8-7.8-4.2-13-4.2c-6.9,0-12.3,2.5-16.2,7.4
								C250.7,147,248.3,156.7,248.3,170.2z M257.4,170.2c0-11.8,1.4-19.6,4.1-23.5c2.8-3.9,6.1-5.8,10.2-5.8c4,0,7.4,2,10.2,5.9
								s4.1,11.7,4.1,23.4c0,11.8-1.4,19.6-4.1,23.5c-2.8,3.9-6.2,5.8-10.3,5.8c-4,0-7.3-1.7-9.7-5.1
								C258.9,190,257.4,181.9,257.4,170.2z"/>
						</g>
					</g>
				</g>
			</g>
			<g id="ytick_4">
				<g id="line2d_4">
					<g>
						<defs>
							<rect id="SVGID_7_" x="71.7" y="19.7" width="334.8" height="217.4"/>
						</defs>
						<clipPath id="SVGID_8_">
							<use xlink:href="#SVGID_7_"  style="overflow:visible;"/>
						</clipPath>
						<path class="st5" d="M71.7,155.8h334.8"/>
					</g>
				</g>
				<g id="text_7">
					<g transform="translate(29.21 174.547946)scale(0.11 -0.11)">
						<g>
							<path id="ArialMT-55" class="st1" d="M165.5,197.1v8.5h46.3v-6.8c-4.6-4.8-9.1-11.3-13.6-19.3c-4.5-8-7.9-16.3-10.4-24.8
								c-1.8-6-2.9-12.5-3.4-19.7h-9c0.1,5.6,1.2,12.4,3.3,20.4c2.1,8,5.2,15.7,9.1,23.1c4,7.4,8.2,13.6,12.6,18.7H165.5z"/>
						</g>
						<g>
							<path id="ArialMT-46_3_" class="st1" d="M225.5,134.9v10h10v-10H225.5z"/>
						</g>
						<g>
							<path id="ArialMT-53_2_" class="st1" d="M248.3,153.6l9.2,0.8c0.7-4.5,2.3-7.9,4.8-10.1c2.5-2.3,5.5-3.4,9-3.4
								c4.2,0,7.8,1.6,10.7,4.8c2.9,3.2,4.4,7.4,4.4,12.7c0,5-1.4,9-4.2,11.9c-2.8,2.9-6.5,4.4-11.1,4.4c-2.8,0-5.4-0.6-7.7-1.9
								c-2.3-1.3-4.1-2.9-5.4-5l-8.2,1.1l6.9,36.8h35.6v-8.4h-28.6l-3.8-19.2c4.3,3,8.8,4.5,13.5,4.5c6.2,0,11.5-2.2,15.8-6.5
								c4.3-4.3,6.5-9.9,6.5-16.7c0-6.5-1.9-12.1-5.7-16.8c-4.6-5.8-10.9-8.7-18.8-8.7c-6.5,0-11.8,1.8-16,5.5
								C251.3,142.8,248.9,147.6,248.3,153.6z"/>
						</g>
					</g>
				</g>
			</g>
			<g id="ytick_5">
				<g id="line2d_5">
					<g>
						<defs>
							<rect id="SVGID_9_" x="71.7" y="19.7" width="334.8" height="217.4"/>
						</defs>
						<clipPath id="SVGID_10_">
							<use xlink:href="#SVGID_9_"  style="overflow:visible;"/>
						</clipPath>
						<path class="st6" d="M71.7,128.6h334.8"/>
					</g>
				</g>
				<g id="text_8">
					<g transform="translate(23.092969 147.418329)scale(0.11 -0.11)">
						<g>
							<path id="ArialMT-49" class="st1" d="M198,134.9h-8.8v56c-2.1-2-4.9-4-8.3-6c-3.4-2-6.5-3.5-9.2-4.5v8.5
								c4.9,2.3,9.2,5.1,12.9,8.4c3.7,3.3,6.3,6.5,7.8,9.6h5.7V134.9z"/>
						</g>
						<g>
							<path id="ArialMT-48_3_" class="st1" d="M220.5,170.2c0,8.5,0.9,15.3,2.6,20.4c1.7,5.2,4.3,9.1,7.8,11.9
								c3.4,2.8,7.8,4.2,13,4.2c3.8,0,7.2-0.8,10.1-2.3c2.9-1.5,5.3-3.8,7.2-6.7c1.9-2.9,3.4-6.5,4.5-10.6c1.1-4.2,1.6-9.8,1.6-16.9
								c0-8.4-0.9-15.2-2.6-20.3c-1.7-5.2-4.3-9.1-7.7-12c-3.4-2.8-7.8-4.2-13-4.2c-6.9,0-12.3,2.5-16.2,7.4
								C222.9,147,220.5,156.7,220.5,170.2z M229.6,170.2c0-11.8,1.4-19.6,4.1-23.5c2.8-3.9,6.1-5.8,10.2-5.8c4,0,7.4,2,10.2,5.9
								c2.7,3.9,4.1,11.7,4.1,23.4c0,11.8-1.4,19.6-4.1,23.5c-2.8,3.9-6.2,5.8-10.3,5.8c-4,0-7.3-1.7-9.7-5.1
								C231.1,190,229.6,181.9,229.6,170.2z"/>
						</g>
						<g>
							<path id="ArialMT-46_4_" class="st1" d="M281.1,134.9v10h10v-10H281.1z"/>
						</g>
						<g>
							<path id="ArialMT-48_4_" class="st1" d="M303.9,170.2c0,8.5,0.9,15.3,2.6,20.4c1.7,5.2,4.3,9.1,7.8,11.9
								c3.4,2.8,7.8,4.2,13,4.2c3.8,0,7.2-0.8,10.1-2.3c2.9-1.5,5.3-3.8,7.2-6.7c1.9-2.9,3.4-6.5,4.5-10.6c1.1-4.2,1.6-9.8,1.6-16.9
								c0-8.4-0.9-15.2-2.6-20.3c-1.7-5.2-4.3-9.1-7.7-12c-3.4-2.8-7.8-4.2-13-4.2c-6.9,0-12.3,2.5-16.2,7.4
								C306.3,147,303.9,156.7,303.9,170.2z M313,170.2c0-11.8,1.4-19.6,4.1-23.5c2.8-3.9,6.1-5.8,10.2-5.8c4,0,7.4,2,10.2,5.9
								s4.1,11.7,4.1,23.4c0,11.8-1.4,19.6-4.1,23.5c-2.8,3.9-6.2,5.8-10.3,5.8c-4,0-7.3-1.7-9.7-5.1C314.5,190,313,181.9,313,170.2
								z"/>
						</g>
					</g>
				</g>
			</g>
			<g id="ytick_6">
				<g id="line2d_6">
					<g>
						<defs>
							<rect id="SVGID_11_" x="71.7" y="19.7" width="334.8" height="217.4"/>
						</defs>
						<clipPath id="SVGID_12_">
							<use xlink:href="#SVGID_11_"  style="overflow:visible;"/>
						</clipPath>
						<path class="st7" d="M71.7,101.5h334.8"/>
					</g>
				</g>
				<g id="text_9">
					<g transform="translate(23.092969 120.288712)scale(0.11 -0.11)">
						<g>
							<path id="ArialMT-49_1_" class="st1" d="M198,134.9h-8.8v56c-2.1-2-4.9-4-8.3-6c-3.4-2-6.5-3.5-9.2-4.5v8.5
								c4.9,2.3,9.2,5.1,12.9,8.4c3.7,3.3,6.3,6.5,7.8,9.6h5.7V134.9z"/>
						</g>
						<g>
							<path id="ArialMT-50_1_" class="st1" d="M266.7,143.3v-8.5h-47.3c-0.1,2.1,0.3,4.2,1,6.1c1.2,3.2,3.1,6.4,5.8,9.5
								c2.7,3.1,6.5,6.7,11.5,10.8c7.8,6.4,13,11.4,15.8,15.2c2.7,3.7,4.1,7.3,4.1,10.6c0,3.5-1.2,6.4-3.7,8.8
								c-2.5,2.4-5.7,3.6-9.7,3.6c-4.2,0-7.6-1.3-10.2-3.8c-2.5-2.5-3.8-6-3.9-10.5l-9,0.9c0.6,6.7,2.9,11.9,7,15.4
								c4,3.5,9.5,5.3,16.3,5.3c6.9,0,12.3-1.9,16.3-5.7c4-3.8,6-8.5,6-14.2c0-2.9-0.6-5.7-1.8-8.5c-1.2-2.8-3.1-5.7-5.8-8.7
								s-7.2-7.3-13.5-12.6c-5.3-4.4-8.7-7.4-10.2-9c-1.5-1.6-2.7-3.2-3.7-4.8H266.7z"/>
						</g>
						<g>
							<path id="ArialMT-46_5_" class="st1" d="M281.1,134.9v10h10v-10H281.1z"/>
						</g>
						<g>
							<path id="ArialMT-53_3_" class="st1" d="M303.9,153.6l9.2,0.8c0.7-4.5,2.3-7.9,4.8-10.1c2.5-2.3,5.5-3.4,9-3.4
								c4.2,0,7.8,1.6,10.7,4.8c2.9,3.2,4.4,7.4,4.4,12.7c0,5-1.4,9-4.2,11.9c-2.8,2.9-6.5,4.4-11.1,4.4c-2.8,0-5.4-0.6-7.7-1.9
								c-2.3-1.3-4.1-2.9-5.4-5l-8.2,1.1l6.9,36.8H348v-8.4h-28.6l-3.8-19.2c4.3,3,8.8,4.5,13.5,4.5c6.2,0,11.5-2.2,15.8-6.5
								c4.3-4.3,6.5-9.9,6.5-16.7c0-6.5-1.9-12.1-5.7-16.8c-4.6-5.8-10.9-8.7-18.8-8.7c-6.5,0-11.8,1.8-16,5.5
								C306.9,142.8,304.5,147.6,303.9,153.6z"/>
						</g>
					</g>
				</g>
			</g>
			<g id="ytick_7">
				<g id="line2d_7">
					<g>
						<defs>
							<rect id="SVGID_13_" x="71.7" y="19.7" width="334.8" height="217.4"/>
						</defs>
						<clipPath id="SVGID_14_">
							<use xlink:href="#SVGID_13_"  style="overflow:visible;"/>
						</clipPath>
						<path class="st8" d="M71.7,74.4h334.8"/>
					</g>
				</g>
				<g id="text_10">
					<g transform="translate(23.092969 93.159095)scale(0.11 -0.11)">
						<g>
							<path id="ArialMT-49_2_" class="st1" d="M198,134.9h-8.8v56c-2.1-2-4.9-4-8.3-6c-3.4-2-6.5-3.5-9.2-4.5v8.5
								c4.9,2.3,9.2,5.1,12.9,8.4c3.7,3.3,6.3,6.5,7.8,9.6h5.7V134.9z"/>
						</g>
						<g>
							<path id="ArialMT-53_4_" class="st1" d="M220.5,153.6l9.2,0.8c0.7-4.5,2.3-7.9,4.8-10.1c2.5-2.3,5.5-3.4,9-3.4
								c4.2,0,7.8,1.6,10.7,4.8c2.9,3.2,4.4,7.4,4.4,12.7c0,5-1.4,9-4.2,11.9c-2.8,2.9-6.5,4.4-11.1,4.4c-2.8,0-5.4-0.6-7.7-1.9
								c-2.3-1.3-4.1-2.9-5.4-5l-8.2,1.1l6.9,36.8h35.6v-8.4h-28.6l-3.8-19.2c4.3,3,8.8,4.5,13.5,4.5c6.2,0,11.5-2.2,15.8-6.5
								c4.3-4.3,6.5-9.9,6.5-16.7c0-6.5-1.9-12.1-5.7-16.8c-4.6-5.8-10.9-8.7-18.8-8.7c-6.5,0-11.8,1.8-16,5.5
								C223.5,142.8,221.1,147.6,220.5,153.6z"/>
						</g>
						<g>
							<path id="ArialMT-46_6_" class="st1" d="M281.1,134.9v10h10v-10H281.1z"/>
						</g>
						<g>
							<path id="ArialMT-48_5_" class="st1" d="M303.9,170.2c0,8.5,0.9,15.3,2.6,20.4c1.7,5.2,4.3,9.1,7.8,11.9
								c3.4,2.8,7.8,4.2,13,4.2c3.8,0,7.2-0.8,10.1-2.3c2.9-1.5,5.3-3.8,7.2-6.7c1.9-2.9,3.4-6.5,4.5-10.6c1.1-4.2,1.6-9.8,1.6-16.9
								c0-8.4-0.9-15.2-2.6-20.3c-1.7-5.2-4.3-9.1-7.7-12c-3.4-2.8-7.8-4.2-13-4.2c-6.9,0-12.3,2.5-16.2,7.4
								C306.3,147,303.9,156.7,303.9,170.2z M313,170.2c0-11.8,1.4-19.6,4.1-23.5c2.8-3.9,6.1-5.8,10.2-5.8c4,0,7.4,2,10.2,5.9
								s4.1,11.7,4.1,23.4c0,11.8-1.4,19.6-4.1,23.5c-2.8,3.9-6.2,5.8-10.3,5.8c-4,0-7.3-1.7-9.7-5.1C314.5,190,313,181.9,313,170.2
								z"/>
						</g>
					</g>
				</g>
			</g>
			<g id="ytick_8">
				<g id="line2d_8">
					<g>
						<defs>
							<rect id="SVGID_15_" x="71.7" y="19.7" width="334.8" height="217.4"/>
						</defs>
						<clipPath id="SVGID_16_">
							<use xlink:href="#SVGID_15_"  style="overflow:visible;"/>
						</clipPath>
						<path class="st9" d="M71.7,47.3h334.8"/>
					</g>
				</g>
				<g id="text_11">
					<g transform="translate(23.092969 66.029478)scale(0.11 -0.11)">
						<g>
							<path id="ArialMT-49_3_" class="st1" d="M198,134.9h-8.8v56c-2.1-2-4.9-4-8.3-6c-3.4-2-6.5-3.5-9.2-4.5v8.5
								c4.9,2.3,9.2,5.1,12.9,8.4c3.7,3.3,6.3,6.5,7.8,9.6h5.7V134.9z"/>
						</g>
						<g>
							<path id="ArialMT-55_1_" class="st1" d="M221.1,197.1v8.5h46.3v-6.8c-4.6-4.8-9.1-11.3-13.6-19.3c-4.5-8-7.9-16.3-10.4-24.8
								c-1.8-6-2.9-12.5-3.4-19.7h-9c0.1,5.6,1.2,12.4,3.3,20.4c2.1,8,5.2,15.7,9.1,23.1c4,7.4,8.2,13.6,12.6,18.7H221.1z"/>
						</g>
						<g>
							<path id="ArialMT-46_7_" class="st1" d="M281.1,134.9v10h10v-10H281.1z"/>
						</g>
						<g>
							<path id="ArialMT-53_5_" class="st1" d="M303.9,153.6l9.2,0.8c0.7-4.5,2.3-7.9,4.8-10.1c2.5-2.3,5.5-3.4,9-3.4
								c4.2,0,7.8,1.6,10.7,4.8c2.9,3.2,4.4,7.4,4.4,12.7c0,5-1.4,9-4.2,11.9c-2.8,2.9-6.5,4.4-11.1,4.4c-2.8,0-5.4-0.6-7.7-1.9
								c-2.3-1.3-4.1-2.9-5.4-5l-8.2,1.1l6.9,36.8H348v-8.4h-28.6l-3.8-19.2c4.3,3,8.8,4.5,13.5,4.5c6.2,0,11.5-2.2,15.8-6.5
								c4.3-4.3,6.5-9.9,6.5-16.7c0-6.5-1.9-12.1-5.7-16.8c-4.6-5.8-10.9-8.7-18.8-8.7c-6.5,0-11.8,1.8-16,5.5
								C306.9,142.8,304.5,147.6,303.9,153.6z"/>
						</g>
					</g>
				</g>
			</g>
			<g id="ytick_9">
				<g id="line2d_9">
					<g>
						<defs>
							<rect id="SVGID_17_" x="71.7" y="19.7" width="334.8" height="217.4"/>
						</defs>
						<clipPath id="SVGID_18_">
							<use xlink:href="#SVGID_17_"  style="overflow:visible;"/>
						</clipPath>
						<path class="st10" d="M71.7,20.1h334.8"/>
					</g>
				</g>
				<g id="text_12">
					<g transform="translate(23.092969 38.899861)scale(0.11 -0.11)">
						<g>
							<path id="ArialMT-50_2_" class="st1" d="M211.1,143.3v-8.5h-47.3c-0.1,2.1,0.3,4.2,1,6.1c1.2,3.2,3.1,6.4,5.8,9.5
								c2.7,3.1,6.5,6.7,11.5,10.8c7.8,6.4,13,11.4,15.8,15.2c2.7,3.7,4.1,7.3,4.1,10.6c0,3.5-1.2,6.4-3.8,8.8
								c-2.5,2.4-5.7,3.6-9.7,3.6c-4.2,0-7.6-1.3-10.2-3.8c-2.5-2.5-3.8-6-3.9-10.5l-9,0.9c0.6,6.7,2.9,11.9,7,15.4
								c4,3.5,9.5,5.3,16.3,5.3c6.9,0,12.3-1.9,16.3-5.7c4-3.8,6-8.5,6-14.2c0-2.9-0.6-5.7-1.8-8.5c-1.2-2.8-3.1-5.7-5.8-8.7
								s-7.2-7.3-13.5-12.6c-5.3-4.4-8.7-7.4-10.2-9c-1.5-1.6-2.7-3.2-3.7-4.8H211.1z"/>
						</g>
						<g>
							<path id="ArialMT-48_6_" class="st1" d="M220.5,170.2c0,8.5,0.9,15.3,2.6,20.4c1.7,5.2,4.3,9.1,7.8,11.9
								c3.4,2.8,7.8,4.2,13,4.2c3.8,0,7.2-0.8,10.1-2.3c2.9-1.5,5.3-3.8,7.2-6.7c1.9-2.9,3.4-6.5,4.5-10.6c1.1-4.2,1.6-9.8,1.6-16.9
								c0-8.4-0.9-15.2-2.6-20.3c-1.7-5.2-4.3-9.1-7.7-12c-3.4-2.8-7.8-4.2-13-4.2c-6.9,0-12.3,2.5-16.2,7.4
								C222.9,147,220.5,156.7,220.5,170.2z M229.6,170.2c0-11.8,1.4-19.6,4.1-23.5c2.8-3.9,6.1-5.8,10.2-5.8c4,0,7.4,2,10.2,5.9
								c2.7,3.9,4.1,11.7,4.1,23.4c0,11.8-1.4,19.6-4.1,23.5c-2.8,3.9-6.2,5.8-10.3,5.8c-4,0-7.3-1.7-9.7-5.1
								C231.1,190,229.6,181.9,229.6,170.2z"/>
						</g>
						<g>
							<path id="ArialMT-46_8_" class="st1" d="M281.1,134.9v10h10v-10H281.1z"/>
						</g>
						<g>
							<path id="ArialMT-48_7_" class="st1" d="M303.9,170.2c0,8.5,0.9,15.3,2.6,20.4c1.7,5.2,4.3,9.1,7.8,11.9
								c3.4,2.8,7.8,4.2,13,4.2c3.8,0,7.2-0.8,10.1-2.3c2.9-1.5,5.3-3.8,7.2-6.7c1.9-2.9,3.4-6.5,4.5-10.6c1.1-4.2,1.6-9.8,1.6-16.9
								c0-8.4-0.9-15.2-2.6-20.3c-1.7-5.2-4.3-9.1-7.7-12c-3.4-2.8-7.8-4.2-13-4.2c-6.9,0-12.3,2.5-16.2,7.4
								C306.3,147,303.9,156.7,303.9,170.2z M313,170.2c0-11.8,1.4-19.6,4.1-23.5c2.8-3.9,6.1-5.8,10.2-5.8c4,0,7.4,2,10.2,5.9
								s4.1,11.7,4.1,23.4c0,11.8-1.4,19.6-4.1,23.5c-2.8,3.9-6.2,5.8-10.3,5.8c-4,0-7.3-1.7-9.7-5.1C314.5,190,313,181.9,313,170.2
								z"/>
						</g>
					</g>
				</g>
			</g>
			<g id="text_13">
				<g transform="translate(16.567344 180.954375)rotate(-90)scale(0.12 -0.12)">
					<g>
						<path id="ArialMT-83" class="st1" d="M128.1-124.4l8.9,0.8c0.4-3.6,1.4-6.5,3-8.8c1.6-2.3,4-4.1,7.2-5.6
							c3.3-1.4,6.9-2.1,11-2.1c3.6,0,6.8,0.5,9.6,1.6c2.8,1.1,4.8,2.5,6.2,4.4c1.4,1.9,2,3.9,2,6.1c0,2.2-0.7,4.2-2,5.9
							s-3.4,3.1-6.4,4.2c-1.9,0.8-6.2,1.9-12.8,3.5c-6.6,1.6-11.2,3.1-13.8,4.5c-3.4,1.8-6,4-7.7,6.7c-1.7,2.7-2.5,5.6-2.5,8.9
							c0,3.6,1,7,3.1,10.1c2.1,3.1,5,5.5,9,7.2c3.9,1.6,8.3,2.4,13.1,2.4c5.3,0,10-0.9,14-2.6c4.1-1.7,7.2-4.2,9.4-7.5
							c2.2-3.3,3.3-7.1,3.5-11.3l-9.1-0.7c-0.5,4.5-2.1,7.9-5,10.2c-2.8,2.3-7,3.5-12.5,3.5c-5.7,0-9.9-1.1-12.5-3.2
							c-2.6-2.1-3.9-4.6-3.9-7.6c0-2.6,0.9-4.7,2.8-6.4c1.8-1.7,6.6-3.4,14.3-5.1c7.7-1.7,13-3.3,15.8-4.6c4.2-1.9,7.2-4.4,9.2-7.3
							c2-2.9,3-6.3,3-10.2c0-3.8-1.1-7.4-3.3-10.8c-2.2-3.4-5.3-6-9.4-7.9c-4.1-1.9-8.7-2.8-13.8-2.8c-6.5,0-11.9,0.9-16.3,2.8
							c-4.4,1.9-7.8,4.7-10.3,8.5C129.6-133.4,128.2-129.1,128.1-124.4z"/>
					</g>
					<g>
						<path id="ArialMT-112_1_" class="st1" d="M196.9-167.2v71.7h8v-6.7c1.9,2.6,4,4.6,6.4,5.9c2.4,1.3,5.3,2,8.6,2
							c4.4,0,8.3-1.1,11.7-3.4s5.9-5.5,7.7-9.7c1.7-4.1,2.6-8.7,2.6-13.6c0-5.3-1-10.1-2.9-14.3c-1.9-4.2-4.7-7.5-8.3-9.8
							c-3.6-2.3-7.4-3.4-11.5-3.4c-2.9,0-5.6,0.6-7.9,1.9c-2.3,1.2-4.2,2.8-5.7,4.7v-25.2H196.9z M204.9-121.7
							c0-6.7,1.3-11.6,4-14.8c2.7-3.2,6-4.8,9.8-4.8c3.9,0,7.2,1.7,10,5c2.8,3.3,4.2,8.4,4.2,15.4c0,6.6-1.4,11.5-4.1,14.8
							c-2.7,3.3-6,4.9-9.7,4.9c-3.8,0-7.1-1.8-10-5.2C206.3-110,204.9-115.1,204.9-121.7z"/>
					</g>
					<g>
						<path id="ArialMT-101_2_" class="st1" d="M288-130.7l9.1-1.1c-1.4-5.3-4.1-9.4-8-12.4c-3.9-2.9-8.8-4.4-14.8-4.4
							c-7.6,0-13.6,2.3-18,7c-4.4,4.7-6.7,11.2-6.7,19.7c0,8.7,2.2,15.5,6.7,20.3c4.5,4.8,10.3,7.2,17.5,7.2c6.9,0,12.6-2.4,17-7.1
							c4.4-4.7,6.6-11.4,6.6-19.9c0-0.5,0-1.3,0-2.3h-38.7c0.3-5.7,1.9-10.1,4.8-13.1c2.9-3,6.5-4.5,10.8-4.5c3.2,0,6,0.8,8.2,2.5
							C284.9-137.1,286.7-134.4,288-130.7z M259.2-116.5h29c-0.4,4.4-1.5,7.6-3.3,9.8c-2.8,3.4-6.4,5.1-10.9,5.1
							c-4,0-7.4-1.3-10.2-4C261-108.3,259.5-111.9,259.2-116.5z"/>
					</g>
					<g>
						<path id="ArialMT-101_3_" class="st1" d="M343.6-130.7l9.1-1.1c-1.4-5.3-4.1-9.4-8-12.4c-3.9-2.9-8.8-4.4-14.8-4.4
							c-7.6,0-13.6,2.3-18,7c-4.4,4.7-6.7,11.2-6.7,19.7c0,8.7,2.2,15.5,6.7,20.3c4.5,4.8,10.3,7.2,17.5,7.2c6.9,0,12.6-2.4,17-7.1
							c4.4-4.7,6.6-11.4,6.6-19.9c0-0.5,0-1.3,0-2.3h-38.7c0.3-5.7,1.9-10.1,4.8-13.1c2.9-3,6.5-4.5,10.8-4.5c3.2,0,6,0.8,8.2,2.5
							C340.5-137.1,342.3-134.4,343.6-130.7z M314.8-116.5h29c-0.4,4.4-1.5,7.6-3.3,9.8c-2.8,3.4-6.4,5.1-10.9,5.1
							c-4,0-7.4-1.3-10.2-4C316.6-108.3,315.1-111.9,314.8-116.5z"/>
					</g>
					<g>
						<path id="ArialMT-100_3_" class="st1" d="M397.4-147.4v6.5c-3.3-5.1-8.1-7.7-14.5-7.7c-4.1,0-7.9,1.1-11.4,3.4
							s-6.2,5.5-8.1,9.5c-1.9,4.1-2.8,8.8-2.8,14.1c0,5.2,0.9,9.9,2.6,14.1c1.7,4.2,4.3,7.4,7.8,9.7c3.5,2.2,7.3,3.4,11.6,3.4
							c3.1,0,5.9-0.7,8.3-2c2.4-1.3,4.4-3,6-5.1v25.7h8.7v-71.6H397.4z M369.6-121.5c0-6.6,1.4-11.6,4.2-14.9
							c2.8-3.3,6.1-4.9,9.9-4.9c3.8,0,7.1,1.6,9.8,4.7c2.7,3.1,4,7.9,4,14.4c0,7.1-1.4,12.3-4.1,15.6c-2.7,3.3-6.1,5-10.1,5
							c-3.9,0-7.2-1.6-9.8-4.8C370.9-109.6,369.6-114.6,369.6-121.5z"/>
					</g>
					<g>
						<path id="ArialMT-32_1_" class="st1" d="M412.8-147.4"/>
					</g>
					<g>
						<path id="ArialMT-40" class="st1" d="M464-168.4c-4.9,6.1-9,13.3-12.3,21.5c-3.3,8.2-5,16.7-5,25.5c0,7.8,1.2,15.2,3.8,22.3
							c2.9,8.2,7.5,16.4,13.6,24.6h6.3c-3.9-6.8-6.5-11.6-7.8-14.5c-2-4.5-3.6-9.2-4.7-14.1c-1.4-6.1-2.1-12.2-2.1-18.4
							c0-15.7,4.9-31.3,14.6-46.9H464z"/>
					</g>
					<g>
						<path id="ArialMT-87" class="st1" d="M494.1-147.4l-19,71.6h9.7l10.9-46.9c1.2-4.9,2.2-9.8,3-14.6c1.8,7.6,2.9,12.1,3.2,13.2
							l13.6,48.3H527l10.2-36.2c2.6-9,4.4-17.4,5.6-25.3c0.9,4.5,2.1,9.7,3.6,15.6l11.2,46h9.5l-19.6-71.6h-9.1l-15.1,54.5
							c-1.3,4.6-2,7.3-2.2,8.4c-0.8-3.3-1.5-6.1-2.1-8.4l-15.2-54.5H494.1z"/>
					</g>
					<g>
						<path id="ArialMT-80" class="st1" d="M576-147.4v71.6h27c4.8,0,8.4-0.2,10.9-0.7c3.5-0.6,6.5-1.7,8.8-3.4
							c2.4-1.6,4.3-3.9,5.8-6.9c1.4-3,2.2-6.2,2.2-9.8c0-6.1-1.9-11.2-5.8-15.5c-3.9-4.2-10.9-6.3-21-6.3h-18.4v-29.1H576z
							 M585.4-109.8h18.5c6.1,0,10.5,1.1,13,3.4s3.9,5.5,3.9,9.6c0,3-0.8,5.5-2.3,7.7c-1.5,2.1-3.5,3.5-6,4.2
							c-1.6,0.4-4.6,0.6-8.8,0.6h-18.3V-109.8z"/>
					</g>
					<g>
						<path id="ArialMT-77" class="st1" d="M642.4-147.4v71.6h14.3l16.9-50.7c1.6-4.7,2.7-8.3,3.4-10.6c0.8,2.6,2.1,6.4,3.8,11.5
							l17.1,49.8h12.8v-71.6h-9.1v59.9l-20.8-59.9h-8.5l-20.7,60.9v-60.9H642.4z"/>
					</g>
					<g>
						<path id="ArialMT-41" class="st1" d="M730.6-168.4h-6.3c9.7,15.6,14.6,31.3,14.6,46.9c0,6.1-0.7,12.2-2.1,18.2
							c-1.1,4.9-2.7,9.6-4.6,14.1c-1.3,2.9-3.9,7.8-7.9,14.6h6.3c6.1-8.2,10.6-16.4,13.6-24.6c2.5-7.1,3.8-14.5,3.8-22.3
							c0-8.8-1.7-17.3-5.1-25.5C739.5-155.1,735.4-162.3,730.6-168.4z"/>
					</g>
				</g>
			</g>
		</g>
		<g id="patch_3">
			<g>
				<defs>
					<rect id="SVGID_19_" x="71.7" y="19.7" width="334.8" height="217.4"/>
				</defs>
				<clipPath id="SVGID_20_">
					<use xlink:href="#SVGID_19_"  style="overflow:visible;"/>
				</clipPath>
				<path class="st11" d="M88.4,237.2h67V70.3h-67V237.2z"/>
			</g>
		</g>
		<g id="patch_4">
			<g>
				<defs>
					<rect id="SVGID_21_" x="71.7" y="19.7" width="334.8" height="217.4"/>
				</defs>
				<clipPath id="SVGID_22_">
					<use xlink:href="#SVGID_21_"  style="overflow:visible;"/>
				</clipPath>
				<path class="st12" d="M255.8,237.2h67v-104h-67V237.2z"/>
			</g>
		</g>
		<g id="patch_5">
			<g>
				<defs>
					<rect id="SVGID_23_" x="71.7" y="19.7" width="334.8" height="217.4"/>
				</defs>
				<clipPath id="SVGID_24_">
					<use xlink:href="#SVGID_23_"  style="overflow:visible;"/>
				</clipPath>
				<path class="st13" d="M155.4,237.2h67v-174h-67V237.2z"/>
			</g>
		</g>
		<g id="patch_6">
			<g>
				<defs>
					<rect id="SVGID_25_" x="71.7" y="19.7" width="334.8" height="217.4"/>
				</defs>
				<clipPath id="SVGID_26_">
					<use xlink:href="#SVGID_25_"  style="overflow:visible;"/>
				</clipPath>
				<path class="st14" d="M322.8,237.2h67V135h-67V237.2z"/>
			</g>
		</g>
		<g id="line2d_10">
			<g>
				<defs>
					<rect id="SVGID_27_" x="71.7" y="19.7" width="334.8" height="217.4"/>
				</defs>
				<clipPath id="SVGID_28_">
					<use xlink:href="#SVGID_27_"  style="overflow:visible;"/>
				</clipPath>
				<path class="st15" d="M121.9,86.1V54.5"/>
			</g>
		</g>
		<g id="line2d_11">
			<g>
				<defs>
					<rect id="SVGID_29_" x="71.7" y="19.7" width="334.8" height="217.4"/>
				</defs>
				<clipPath id="SVGID_30_">
					<use xlink:href="#SVGID_29_"  style="overflow:visible;"/>
				</clipPath>
				<path class="st16" d="M119.4,86.1h5"/>
			</g>
		</g>
		<g id="line2d_12">
			<g>
				<defs>
					<rect id="SVGID_31_" x="71.7" y="19.7" width="334.8" height="217.4"/>
				</defs>
				<clipPath id="SVGID_32_">
					<use xlink:href="#SVGID_31_"  style="overflow:visible;"/>
				</clipPath>
				<path class="st17" d="M119.4,54.5h5"/>
			</g>
		</g>
		<g id="line2d_13">
			<g>
				<defs>
					<rect id="SVGID_33_" x="71.7" y="19.7" width="334.8" height="217.4"/>
				</defs>
				<clipPath id="SVGID_34_">
					<use xlink:href="#SVGID_33_"  style="overflow:visible;"/>
				</clipPath>
				<path class="st18" d="M289.3,142.4v-20.9"/>
			</g>
		</g>
		<g id="line2d_14">
			<g>
				<defs>
					<rect id="SVGID_35_" x="71.7" y="19.7" width="334.8" height="217.4"/>
				</defs>
				<clipPath id="SVGID_36_">
					<use xlink:href="#SVGID_35_"  style="overflow:visible;"/>
				</clipPath>
				<path class="st19" d="M286.8,142.4h5"/>
			</g>
		</g>
		<g id="line2d_15">
			<g>
				<defs>
					<rect id="SVGID_37_" x="71.7" y="19.7" width="334.8" height="217.4"/>
				</defs>
				<clipPath id="SVGID_38_">
					<use xlink:href="#SVGID_37_"  style="overflow:visible;"/>
				</clipPath>
				<path class="st20" d="M286.8,121.5h5"/>
			</g>
		</g>
		<g id="line2d_16">
			<g>
				<defs>
					<rect id="SVGID_39_" x="71.7" y="19.7" width="334.8" height="217.4"/>
				</defs>
				<clipPath id="SVGID_40_">
					<use xlink:href="#SVGID_39_"  style="overflow:visible;"/>
				</clipPath>
				<path class="st21" d="M188.9,103.2V30.1"/>
			</g>
		</g>
		<g id="line2d_17">
			<g>
				<defs>
					<rect id="SVGID_41_" x="71.7" y="19.7" width="334.8" height="217.4"/>
				</defs>
				<clipPath id="SVGID_42_">
					<use xlink:href="#SVGID_41_"  style="overflow:visible;"/>
				</clipPath>
				<path class="st22" d="M186.4,103.2h5"/>
			</g>
		</g>
		<g id="line2d_18">
			<g>
				<defs>
					<rect id="SVGID_43_" x="71.7" y="19.7" width="334.8" height="217.4"/>
				</defs>
				<clipPath id="SVGID_44_">
					<use xlink:href="#SVGID_43_"  style="overflow:visible;"/>
				</clipPath>
				<path class="st23" d="M186.4,30.1h5"/>
			</g>
		</g>
		<g id="line2d_19">
			<g>
				<defs>
					<rect id="SVGID_45_" x="71.7" y="19.7" width="334.8" height="217.4"/>
				</defs>
				<clipPath id="SVGID_46_">
					<use xlink:href="#SVGID_45_"  style="overflow:visible;"/>
				</clipPath>
				<path class="st24" d="M356.3,158.4v-39.8"/>
			</g>
		</g>
		<g id="line2d_20">
			<g>
				<defs>
					<rect id="SVGID_47_" x="71.7" y="19.7" width="334.8" height="217.4"/>
				</defs>
				<clipPath id="SVGID_48_">
					<use xlink:href="#SVGID_47_"  style="overflow:visible;"/>
				</clipPath>
				<path class="st25" d="M353.8,158.4h5"/>
			</g>
		</g>
		<g id="line2d_21">
			<g>
				<defs>
					<rect id="SVGID_49_" x="71.7" y="19.7" width="334.8" height="217.4"/>
				</defs>
				<clipPath id="SVGID_50_">
					<use xlink:href="#SVGID_49_"  style="overflow:visible;"/>
				</clipPath>
				<path class="st26" d="M353.8,118.6h5"/>
			</g>
		</g>
		<g id="patch_7">
			<path class="st27" d="M71.7,237.2V19.7"/>
		</g>
		<g id="patch_8">
			<path class="st27" d="M406.5,237.2V19.7"/>
		</g>
		<g id="patch_9">
			<path class="st27" d="M71.7,237.2h334.8"/>
		</g>
		<g id="patch_10">
			<path class="st27" d="M71.7,19.7h334.8"/>
		</g>
		<g id="legend_1">
			<g id="patch_11">
				<path class="st28" d="M330,74.5h68.8c1.5,0,2.2-0.7,2.2-2.2V27.4c0-1.5-0.7-2.2-2.2-2.2H330c-1.5,0-2.2,0.7-2.2,2.2v44.8
					C327.8,73.7,328.5,74.5,330,74.5z"/>
			</g>
			<g id="text_14">
				<g transform="translate(319.196172 51.760969)scale(0.102 -0.102)">
					<g>
						<path id="ArialMT-83_1_" class="st1" d="M177.9,168.4l8.9,0.8c0.4-3.6,1.4-6.5,3-8.8c1.6-2.3,4-4.1,7.2-5.6
							c3.3-1.4,6.9-2.1,11-2.1c3.6,0,6.8,0.5,9.6,1.6s4.8,2.5,6.2,4.4c1.4,1.9,2,3.9,2,6.1c0,2.2-0.7,4.2-2,5.9s-3.4,3.1-6.4,4.2
							c-1.9,0.8-6.2,1.9-12.8,3.5c-6.6,1.6-11.2,3.1-13.8,4.5c-3.4,1.8-6,4-7.7,6.7c-1.7,2.7-2.5,5.6-2.5,8.9c0,3.6,1,7,3.1,10.1
							c2.1,3.1,5,5.5,9,7.2c3.9,1.6,8.3,2.4,13.1,2.4c5.3,0,10-0.9,14-2.6c4.1-1.7,7.2-4.2,9.4-7.5c2.2-3.3,3.3-7.1,3.5-11.3
							l-9.1-0.7c-0.5,4.5-2.1,7.9-5,10.2c-2.8,2.3-7,3.5-12.5,3.5c-5.7,0-9.9-1.1-12.5-3.2c-2.6-2.1-3.9-4.6-3.9-7.6
							c0-2.6,0.9-4.7,2.8-6.4c1.8-1.7,6.6-3.4,14.3-5.1c7.7-1.7,13-3.3,15.8-4.6c4.2-1.9,7.2-4.4,9.2-7.3c2-2.9,3-6.3,3-10.2
							c0-3.8-1.1-7.4-3.3-10.8c-2.2-3.4-5.3-6-9.4-7.9c-4.1-1.9-8.7-2.8-13.8-2.8c-6.5,0-11.9,0.9-16.3,2.8
							c-4.4,1.9-7.8,4.7-10.3,8.5C179.3,159.4,178,163.7,177.9,168.4z"/>
					</g>
					<g>
						<path id="ArialMT-99" class="st1" d="M280.5,164.4l8.6-1.1c-0.9-6-3.4-10.6-7.3-14c-3.9-3.4-8.7-5-14.3-5
							c-7.1,0-12.8,2.3-17.1,7c-4.3,4.6-6.5,11.3-6.5,20c0,5.6,0.9,10.5,2.8,14.7c1.9,4.2,4.7,7.4,8.5,9.5c3.8,2.1,7.9,3.2,12.4,3.2
							c5.6,0,10.2-1.4,13.8-4.3c3.6-2.8,5.9-6.9,6.9-12.1l-8.5-1.3c-0.8,3.5-2.3,6.1-4.3,7.9c-2.1,1.8-4.6,2.6-7.5,2.6
							c-4.4,0-8-1.6-10.8-4.8c-2.8-3.2-4.1-8.2-4.1-15c0-7,1.3-12,4-15.2c2.7-3.2,6.2-4.7,10.5-4.7c3.4,0,6.3,1.1,8.6,3.2
							S279.9,160,280.5,164.4z"/>
					</g>
					<g>
						<path id="ArialMT-114_3_" class="st1" d="M296.6,145.4v51.9h7.9v-7.9c2,3.7,3.9,6.1,5.6,7.3c1.7,1.2,3.6,1.8,5.6,1.8
							c3,0,6-0.9,9-2.8l-3-8.2c-2.1,1.3-4.3,1.9-6.4,1.9c-1.9,0-3.7-0.6-5.2-1.7s-2.6-2.8-3.3-4.8c-1-3.1-1.5-6.5-1.5-10.2v-27.2
							H296.6z"/>
					</g>
					<g>
						<path id="ArialMT-101_4_" class="st1" d="M365.5,162.1l9.1-1.1c-1.4-5.3-4.1-9.4-8-12.4c-3.9-2.9-8.8-4.4-14.8-4.4
							c-7.6,0-13.6,2.3-18,7c-4.4,4.7-6.7,11.2-6.7,19.7c0,8.7,2.2,15.5,6.7,20.3c4.5,4.8,10.3,7.2,17.5,7.2c6.9,0,12.6-2.4,17-7.1
							c4.4-4.7,6.6-11.4,6.6-19.9c0-0.5,0-1.3,0-2.3h-38.7c0.3-5.7,1.9-10.1,4.8-13.1c2.9-3,6.5-4.5,10.8-4.5c3.2,0,6,0.8,8.2,2.5
							C362.3,155.7,364.1,158.4,365.5,162.1z M336.6,176.3h29c-0.4,4.4-1.5,7.6-3.3,9.8c-2.8,3.4-6.4,5.1-10.9,5.1
							c-4,0-7.4-1.3-10.2-4S336.9,180.9,336.6,176.3z"/>
					</g>
					<g>
						<path id="ArialMT-101_5_" class="st1" d="M421.1,162.1l9.1-1.1c-1.4-5.3-4.1-9.4-8-12.4c-3.9-2.9-8.8-4.4-14.8-4.4
							c-7.6,0-13.6,2.3-18,7c-4.4,4.7-6.7,11.2-6.7,19.7c0,8.7,2.2,15.5,6.7,20.3c4.5,4.8,10.3,7.2,17.5,7.2c6.9,0,12.6-2.4,17-7.1
							c4.4-4.7,6.6-11.4,6.6-19.9c0-0.5,0-1.3,0-2.3h-38.7c0.3-5.7,1.9-10.1,4.8-13.1c2.9-3,6.5-4.5,10.8-4.5c3.2,0,6,0.8,8.2,2.5
							C417.9,155.7,419.7,158.4,421.1,162.1z M392.2,176.3h29c-0.4,4.4-1.5,7.6-3.3,9.8c-2.8,3.4-6.4,5.1-10.9,5.1
							c-4,0-7.4-1.3-10.2-4S392.5,180.9,392.2,176.3z"/>
					</g>
					<g>
						<path id="ArialMT-110_1_" class="st1" d="M441.2,145.4v51.9h7.9v-7.4c3.8,5.7,9.3,8.5,16.5,8.5c3.1,0,6-0.6,8.6-1.7
							s4.6-2.6,5.9-4.4c1.3-1.8,2.2-4,2.7-6.5c0.3-1.6,0.5-4.5,0.5-8.5v-31.9h-8.8V177c0,3.6-0.3,6.3-1,8c-0.7,1.8-1.9,3.2-3.6,4.2
							c-1.7,1.1-3.8,1.6-6.1,1.6c-3.8,0-7-1.2-9.7-3.6s-4.1-6.9-4.1-13.5v-28.3H441.2z"/>
					</g>
					<g>
						<path id="ArialMT-32_2_" class="st1" d="M490.2,145.4"/>
					</g>
					<g>
						<path id="ArialMT-83_2_" class="st1" d="M522.5,168.4l8.9,0.8c0.4-3.6,1.4-6.5,3-8.8c1.6-2.3,4-4.1,7.2-5.6
							c3.3-1.4,6.9-2.1,11-2.1c3.6,0,6.8,0.5,9.6,1.6c2.8,1.1,4.8,2.5,6.2,4.4c1.4,1.9,2,3.9,2,6.1c0,2.2-0.7,4.2-2,5.9
							c-1.3,1.7-3.4,3.1-6.4,4.2c-1.9,0.8-6.2,1.9-12.8,3.5c-6.6,1.6-11.2,3.1-13.8,4.5c-3.4,1.8-6,4-7.7,6.7
							c-1.7,2.7-2.5,5.6-2.5,8.9c0,3.6,1,7,3.1,10.1c2.1,3.1,5,5.5,9,7.2c3.9,1.6,8.3,2.4,13.1,2.4c5.3,0,10-0.9,14-2.6
							c4.1-1.7,7.2-4.2,9.4-7.5c2.2-3.3,3.3-7.1,3.5-11.3l-9.1-0.7c-0.5,4.5-2.1,7.9-5,10.2c-2.8,2.3-7,3.5-12.5,3.5
							c-5.7,0-9.9-1.1-12.5-3.2c-2.6-2.1-3.9-4.6-3.9-7.6c0-2.6,0.9-4.7,2.8-6.4c1.8-1.7,6.6-3.4,14.3-5.1c7.7-1.7,13-3.3,15.8-4.6
							c4.2-1.9,7.2-4.4,9.2-7.3c2-2.9,3-6.3,3-10.2c0-3.8-1.1-7.4-3.3-10.8c-2.2-3.4-5.3-6-9.4-7.9c-4.1-1.9-8.7-2.8-13.8-2.8
							c-6.5,0-11.9,0.9-16.3,2.8c-4.4,1.9-7.8,4.7-10.3,8.5C523.9,159.4,522.6,163.7,522.5,168.4z"/>
					</g>
					<g>
						<path id="ArialMT-105_2_" class="st1" d="M591.3,206.9V217h8.8v-10.1H591.3z M591.3,145.4v51.9h8.8v-51.9H591.3z"/>
					</g>
					<g>
						<path id="ArialMT-122" class="st1" d="M608.9,145.4v7.1l33,37.9c-3.8-0.2-7.1-0.3-9.9-0.3h-21.1v7.1h42.4v-5.8l-28.1-32.9
							l-5.4-6c3.9,0.3,7.6,0.4,11.1,0.4h24v-7.6H608.9z"/>
					</g>
					<g>
						<path id="ArialMT-101_6_" class="st1" d="M699,162.1l9.1-1.1c-1.4-5.3-4.1-9.4-8-12.4c-3.9-2.9-8.8-4.4-14.8-4.4
							c-7.6,0-13.6,2.3-18,7c-4.4,4.7-6.7,11.2-6.7,19.7c0,8.7,2.2,15.5,6.7,20.3c4.5,4.8,10.3,7.2,17.5,7.2c6.9,0,12.6-2.4,17-7.1
							s6.6-11.4,6.6-19.9c0-0.5,0-1.3,0-2.3h-38.7c0.3-5.7,1.9-10.1,4.8-13.1c2.9-3,6.5-4.5,10.8-4.5c3.2,0,6,0.8,8.2,2.5
							C695.9,155.7,697.7,158.4,699,162.1z M670.2,176.3h29c-0.4,4.4-1.5,7.6-3.3,9.8c-2.8,3.4-6.4,5.1-10.9,5.1
							c-4,0-7.4-1.3-10.2-4S670.4,180.9,670.2,176.3z"/>
					</g>
				</g>
			</g>
			<g id="patch_12">
				<path class="st29" d="M332.2,52.3h22v-7.7h-22V52.3z"/>
			</g>
			<g id="text_15">
				<g transform="translate(345.284688 67.161812)scale(0.11 -0.11)">
					<g>
						<path id="ArialMT-51" class="st1" d="M165,153.7l8.8,1.2c1-5,2.7-8.6,5.2-10.8c2.4-2.2,5.4-3.3,8.9-3.3
							c4.1,0,7.6,1.4,10.5,4.3c2.9,2.9,4.3,6.4,4.3,10.7c0,4-1.3,7.4-4,10c-2.6,2.6-6,3.9-10.1,3.9c-1.7,0-3.7-0.3-6.2-1l1,7.7
							c0.6-0.1,1.1-0.1,1.4-0.1c3.8,0,7.1,1,10.1,2.9c3,2,4.5,5,4.5,9c0,3.2-1.1,5.9-3.3,8c-2.2,2.1-5,3.2-8.4,3.2
							c-3.4,0-6.3-1.1-8.5-3.2c-2.3-2.1-3.7-5.4-4.4-9.7l-8.8,1.6c1.1,5.9,3.5,10.4,7.3,13.7c3.8,3.2,8.6,4.9,14.2,4.9
							c3.9,0,7.5-0.8,10.8-2.5c3.3-1.7,5.8-4,7.5-6.9c1.8-2.9,2.6-6,2.6-9.2c0-3.1-0.8-5.9-2.5-8.4c-1.7-2.5-4.1-4.6-7.4-6.1
							c4.2-1,7.5-3,9.9-6.1c2.3-3.1,3.5-6.9,3.5-11.5c0-6.2-2.3-11.5-6.8-15.9c-4.6-4.3-10.3-6.5-17.3-6.5c-6.3,0-11.5,1.9-15.7,5.6
							C167.9,143,165.6,147.8,165,153.7z"/>
					</g>
					<g>
						<path id="ArialMT-56" class="st1" d="M234.1,173.7c-3.6,1.3-6.3,3.2-8.1,5.7c-1.8,2.5-2.6,5.4-2.6,8.9c0,5.2,1.9,9.6,5.6,13.1
							c3.8,3.6,8.7,5.3,14.9,5.3c6.2,0,11.3-1.8,15.1-5.5c3.8-3.6,5.7-8,5.7-13.2c0-3.3-0.9-6.2-2.6-8.7c-1.7-2.4-4.4-4.3-7.9-5.7
							c4.4-1.4,7.7-3.7,10-6.9c2.3-3.2,3.4-7,3.4-11.4c0-6.1-2.2-11.3-6.5-15.4c-4.3-4.2-10-6.2-17.1-6.2s-12.8,2.1-17.1,6.3
							c-4.3,4.2-6.5,9.4-6.5,15.7c0,4.7,1.2,8.6,3.5,11.7C226.3,170.4,229.7,172.5,234.1,173.7z M232.3,188.6c0-3.4,1.1-6.2,3.3-8.3
							c2.2-2.1,5-3.2,8.5-3.2c3.4,0,6.2,1.1,8.3,3.2c2.2,2.1,3.2,4.8,3.2,7.8c0,3.2-1.1,5.9-3.4,8.1c-2.2,2.2-5,3.3-8.3,3.3
							c-3.4,0-6.1-1.1-8.4-3.2C233.4,194.1,232.3,191.6,232.3,188.6z M229.5,155.5c0-2.5,0.6-4.9,1.8-7.3s3-4.2,5.3-5.5
							c2.3-1.3,4.9-1.9,7.6-1.9c4.2,0,7.7,1.3,10.4,4c2.7,2.7,4.1,6.1,4.1,10.3c0,4.2-1.4,7.7-4.2,10.5c-2.8,2.8-6.3,4.2-10.6,4.2
							c-4.1,0-7.6-1.4-10.3-4.1C230.8,163,229.5,159.6,229.5,155.5z"/>
					</g>
					<g>
						<path id="ArialMT-32_3_" class="st1" d="M272,134.9"/>
					</g>
					<g>
						<path id="ArialMT-109_1_" class="st1" d="M306.4,134.9v51.9h7.9v-7.3c1.6,2.5,3.8,4.6,6.5,6.1c2.7,1.6,5.8,2.3,9.2,2.3
							c3.8,0,7-0.8,9.5-2.4c2.5-1.6,4.2-3.8,5.2-6.7c4.1,6.1,9.4,9.1,16,9.1c5.1,0,9.1-1.4,11.9-4.3c2.8-2.8,4.2-7.2,4.2-13.2v-35.6
							h-8.8v32.7c0,3.5-0.3,6-0.9,7.6c-0.6,1.6-1.6,2.8-3.1,3.7c-1.5,0.9-3.2,1.4-5.3,1.4c-3.6,0-6.7-1.2-9.1-3.6
							c-2.4-2.4-3.6-6.3-3.6-11.6v-30.1h-8.8v33.7c0,3.9-0.7,6.8-2.2,8.8c-1.4,2-3.8,2.9-7,2.9c-2.5,0-4.8-0.7-6.9-2
							c-2.1-1.3-3.6-3.2-4.6-5.7c-0.9-2.5-1.4-6.1-1.4-10.8v-26.9H306.4z"/>
					</g>
					<g>
						<path id="ArialMT-109_2_" class="st1" d="M389.7,134.9v51.9h7.9v-7.3c1.6,2.5,3.8,4.6,6.5,6.1c2.7,1.6,5.8,2.3,9.2,2.3
							c3.8,0,7-0.8,9.5-2.4c2.5-1.6,4.2-3.8,5.2-6.7c4.1,6.1,9.4,9.1,16,9.1c5.1,0,9.1-1.4,11.9-4.3c2.8-2.8,4.2-7.2,4.2-13.2v-35.6
							h-8.8v32.7c0,3.5-0.3,6-0.9,7.6c-0.6,1.6-1.6,2.8-3.1,3.7c-1.5,0.9-3.2,1.4-5.3,1.4c-3.6,0-6.7-1.2-9.1-3.6
							c-2.4-2.4-3.6-6.3-3.6-11.6v-30.1h-8.8v33.7c0,3.9-0.7,6.8-2.2,8.8c-1.4,2-3.8,2.9-7,2.9c-2.5,0-4.8-0.7-6.9-2
							c-2.1-1.3-3.6-3.2-4.6-5.7c-0.9-2.5-1.4-6.1-1.4-10.8v-26.9H389.7z"/>
					</g>
				</g>
			</g>
			<g id="patch_13">
				<path class="st30" d="M332.2,67.9h22v-7.7h-22V67.9z"/>
			</g>
			<g id="text_16">
				<g transform="translate(345.284688 82.721656)scale(0.11 -0.11)">
					<g>
						<path id="ArialMT-52" class="st1" d="M193.1,134.9V152H162v8.1l32.7,46.4h7.2v-46.4h9.7V152h-9.7v-17.1H193.1z M193.1,160.1
							v32.3l-22.4-32.3H193.1z"/>
					</g>
					<g>
						<path id="ArialMT-50_3_" class="st1" d="M266.7,143.3v-8.5h-47.3c-0.1,2.1,0.3,4.2,1,6.1c1.2,3.2,3.1,6.4,5.8,9.5
							c2.7,3.1,6.5,6.7,11.5,10.8c7.8,6.4,13,11.4,15.8,15.2c2.7,3.7,4.1,7.3,4.1,10.6c0,3.5-1.2,6.4-3.8,8.8
							c-2.5,2.4-5.7,3.6-9.7,3.6c-4.2,0-7.6-1.3-10.2-3.8c-2.5-2.5-3.8-6-3.9-10.5l-9,0.9c0.6,6.7,2.9,11.9,7,15.4
							c4,3.5,9.5,5.3,16.3,5.3c6.9,0,12.3-1.9,16.3-5.7c4-3.8,6-8.5,6-14.2c0-2.9-0.6-5.7-1.8-8.5c-1.2-2.8-3.1-5.7-5.8-8.7
							s-7.2-7.3-13.5-12.6c-5.3-4.4-8.7-7.4-10.2-9c-1.5-1.6-2.7-3.2-3.7-4.8H266.7z"/>
					</g>
					<g>
						<path id="ArialMT-32_4_" class="st1" d="M272,134.9"/>
					</g>
					<g>
						<path id="ArialMT-109_3_" class="st1" d="M306.4,134.9v51.9h7.9v-7.3c1.6,2.5,3.8,4.6,6.5,6.1c2.7,1.6,5.8,2.3,9.2,2.3
							c3.8,0,7-0.8,9.5-2.4c2.5-1.6,4.2-3.8,5.2-6.7c4.1,6.1,9.4,9.1,16,9.1c5.1,0,9.1-1.4,11.9-4.3c2.8-2.8,4.2-7.2,4.2-13.2v-35.6
							h-8.8v32.7c0,3.5-0.3,6-0.9,7.6c-0.6,1.6-1.6,2.8-3.1,3.7c-1.5,0.9-3.2,1.4-5.3,1.4c-3.6,0-6.7-1.2-9.1-3.6
							c-2.4-2.4-3.6-6.3-3.6-11.6v-30.1h-8.8v33.7c0,3.9-0.7,6.8-2.2,8.8c-1.4,2-3.8,2.9-7,2.9c-2.5,0-4.8-0.7-6.9-2
							c-2.1-1.3-3.6-3.2-4.6-5.7c-0.9-2.5-1.4-6.1-1.4-10.8v-26.9H306.4z"/>
					</g>
					<g>
						<path id="ArialMT-109_4_" class="st1" d="M389.7,134.9v51.9h7.9v-7.3c1.6,2.5,3.8,4.6,6.5,6.1c2.7,1.6,5.8,2.3,9.2,2.3
							c3.8,0,7-0.8,9.5-2.4c2.5-1.6,4.2-3.8,5.2-6.7c4.1,6.1,9.4,9.1,16,9.1c5.1,0,9.1-1.4,11.9-4.3c2.8-2.8,4.2-7.2,4.2-13.2v-35.6
							h-8.8v32.7c0,3.5-0.3,6-0.9,7.6c-0.6,1.6-1.6,2.8-3.1,3.7c-1.5,0.9-3.2,1.4-5.3,1.4c-3.6,0-6.7-1.2-9.1-3.6
							c-2.4-2.4-3.6-6.3-3.6-11.6v-30.1h-8.8v33.7c0,3.9-0.7,6.8-2.2,8.8c-1.4,2-3.8,2.9-7,2.9c-2.5,0-4.8-0.7-6.9-2
							c-2.1-1.3-3.6-3.2-4.6-5.7c-0.9-2.5-1.4-6.1-1.4-10.8v-26.9H389.7z"/>
					</g>
				</g>
			</g>
		</g>
	</g>
</g>
</svg>
