<?xml version="1.0" encoding="utf-8"?>
<!-- Generator: Adobe Illustrator 22.0.1, SVG Export Plug-In . SVG Version: 6.00 Build 0)  -->
<svg version="1.1" id="Layer_1" xmlns="http://www.w3.org/2000/svg" xmlns:xlink="http://www.w3.org/1999/xlink" x="0px" y="0px"
	 viewBox="0 0 432 288" style="enable-background:new 0 0 432 288;" xml:space="preserve">
<style type="text/css">
	.st0{fill:#FFFFFF;}
	.st1{fill:#262626;}
	.st2{clip-path:url(#SVGID_2_);fill:none;stroke:#CCCCCC;stroke-linecap:round;stroke-linejoin:round;}
	.st3{clip-path:url(#SVGID_4_);fill:none;stroke:#CCCCCC;stroke-linecap:round;stroke-linejoin:round;}
	.st4{clip-path:url(#SVGID_6_);fill:none;stroke:#CCCCCC;stroke-linecap:round;stroke-linejoin:round;}
	.st5{clip-path:url(#SVGID_8_);fill:none;stroke:#CCCCCC;stroke-linecap:round;stroke-linejoin:round;}
	.st6{clip-path:url(#SVGID_10_);fill:none;stroke:#CCCCCC;stroke-linecap:round;stroke-linejoin:round;}
	.st7{clip-path:url(#SVGID_12_);fill:none;stroke:#CCCCCC;stroke-linecap:round;stroke-linejoin:round;}
	.st8{clip-path:url(#SVGID_14_);fill:#3274A1;stroke:#FFFFFF;}
	.st9{clip-path:url(#SVGID_16_);fill:#3274A1;stroke:#FFFFFF;}
	.st10{clip-path:url(#SVGID_18_);fill:#E1812C;stroke:#FFFFFF;}
	.st11{clip-path:url(#SVGID_20_);fill:#E1812C;stroke:#FFFFFF;}
	.st12{clip-path:url(#SVGID_22_);fill:none;stroke:#424242;stroke-linecap:round;stroke-linejoin:round;}
	.st13{clip-path:url(#SVGID_24_);fill:none;stroke:#424242;stroke-linecap:round;stroke-linejoin:round;}
	.st14{clip-path:url(#SVGID_26_);fill:none;stroke:#424242;stroke-linecap:round;stroke-linejoin:round;}
	.st15{clip-path:url(#SVGID_28_);fill:none;stroke:#424242;stroke-linecap:round;stroke-linejoin:round;}
	.st16{clip-path:url(#SVGID_30_);fill:none;stroke:#424242;stroke-linecap:round;stroke-linejoin:round;}
	.st17{clip-path:url(#SVGID_32_);fill:none;stroke:#424242;stroke-linecap:round;stroke-linejoin:round;}
	.st18{clip-path:url(#SVGID_34_);fill:none;stroke:#424242;stroke-linecap:round;stroke-linejoin:round;}
	.st19{clip-path:url(#SVGID_36_);fill:none;stroke:#424242;stroke-linecap:round;stroke-linejoin:round;}
	.st20{clip-path:url(#SVGID_38_);fill:none;stroke:#424242;stroke-linecap:round;stroke-linejoin:round;}
	.st21{clip-path:url(#SVGID_40_);fill:none;stroke:#424242;stroke-linecap:round;stroke-linejoin:round;}
	.st22{clip-path:url(#SVGID_42_);fill:none;stroke:#424242;stroke-linecap:round;stroke-linejoin:round;}
	.st23{clip-path:url(#SVGID_44_);fill:none;stroke:#424242;stroke-linecap:round;stroke-linejoin:round;}
	.st24{fill:none;stroke:#CCCCCC;stroke-width:1.25;stroke-linecap:square;}
	.st25{opacity:0.8;fill:#FFFFFF;stroke:#CCCCCC;enable-background:new    ;}
	.st26{fill:#3274A1;stroke:#FFFFFF;}
	.st27{fill:#E1812C;stroke:#FFFFFF;}
</style>
<g id="figure_1">
	<g id="axes_1">
		<g id="patch_2">
			<path class="st0" d="M67.1,235.4h334.8V17.9H67.1V235.4z"/>
		</g>
		<g id="matplotlib.axis_1">
			<g id="xtick_1">
				<g id="text_1">
					<g transform="translate(112.025312 269.373594)scale(0.11 -0.11)">
						<g>
							<path id="ArialMT-84" class="st1" d="M145,151.1v63.1h-23.6v8.4h56.7v-8.4h-23.7v-63.1H145z"/>
						</g>
						<g>
							<path id="ArialMT-114" class="st1" d="M186.6,151.1v51.9h7.9v-7.9c2,3.7,3.9,6.1,5.6,7.3c1.7,1.2,3.6,1.8,5.6,1.8
								c3,0,6-0.9,9-2.8l-3-8.2c-2.1,1.3-4.3,1.9-6.4,1.9c-1.9,0-3.7-0.6-5.2-1.7s-2.6-2.8-3.3-4.8c-1-3.1-1.5-6.5-1.5-10.2v-27.2
								H186.6z"/>
						</g>
						<g>
							<path id="ArialMT-97" class="st1" d="M253.8,157.5c-3.3-2.8-6.4-4.7-9.4-5.9c-3-1.1-6.2-1.7-9.7-1.7
								c-5.7,0-10.1,1.4-13.1,4.2s-4.6,6.3-4.6,10.7c0,2.5,0.6,4.9,1.7,7c1.2,2.1,2.7,3.8,4.5,5.1c1.9,1.3,4,2.2,6.3,2.9
								c1.7,0.5,4.3,0.9,7.8,1.3c7.1,0.8,12.3,1.8,15.7,3c0,1.2,0,2,0,2.3c0,3.6-0.8,6.1-2.5,7.6c-2.2,2-5.6,3-10,3
								c-4.1,0-7.2-0.7-9.2-2.2c-2-1.4-3.4-4-4.4-7.7l-8.6,1.2c0.8,3.7,2.1,6.6,3.9,8.9c1.8,2.3,4.4,4,7.8,5.2
								c3.4,1.2,7.3,1.8,11.8,1.8c4.4,0,8-0.5,10.8-1.6c2.8-1,4.8-2.4,6.1-3.9c1.3-1.6,2.2-3.6,2.7-6c0.3-1.5,0.4-4.2,0.4-8.1v-11.7
								c0-8.2,0.2-13.3,0.6-15.5c0.4-2.2,1.1-4.2,2.2-6.2h-9.2C254.7,152.9,254.1,155,253.8,157.5z M253.1,177.1
								c-3.2-1.3-8-2.4-14.4-3.3c-3.6-0.5-6.2-1.1-7.7-1.8c-1.5-0.6-2.6-1.6-3.5-2.8c-0.8-1.2-1.2-2.6-1.2-4.2
								c0-2.3,0.9-4.3,2.7-5.9c1.8-1.6,4.4-2.3,7.8-2.3c3.4,0,6.4,0.7,9,2.2c2.6,1.5,4.6,3.5,5.8,6.1c0.9,2,1.4,4.9,1.4,8.8V177.1z"
								/>
						</g>
						<g>
							<path id="ArialMT-100" class="st1" d="M309.3,151.1v6.5c-3.3-5.1-8.1-7.7-14.5-7.7c-4.1,0-7.9,1.1-11.4,3.4s-6.2,5.5-8.1,9.5
								c-1.9,4.1-2.8,8.8-2.8,14.1c0,5.2,0.9,9.9,2.6,14.1c1.7,4.2,4.3,7.4,7.8,9.7c3.5,2.2,7.3,3.4,11.6,3.4c3.1,0,5.9-0.7,8.3-2
								c2.4-1.3,4.4-3,6-5.1v25.7h8.7v-71.6H309.3z M281.5,176.9c0-6.6,1.4-11.6,4.2-14.9c2.8-3.3,6.1-4.9,9.9-4.9
								c3.8,0,7.1,1.6,9.8,4.7c2.7,3.1,4,7.9,4,14.4c0,7.1-1.4,12.3-4.1,15.6c-2.7,3.3-6.1,5-10.1,5c-3.9,0-7.2-1.6-9.8-4.8
								C282.8,188.8,281.5,183.8,281.5,176.9z"/>
						</g>
						<g>
							<path id="ArialMT-105" class="st1" d="M331.3,212.5v10.1h8.8v-10.1H331.3z M331.3,151.1v51.9h8.8v-51.9H331.3z"/>
						</g>
						<g>
							<path id="ArialMT-116" class="st1" d="M372.6,158.9l1.3-7.8c-2.5-0.5-4.7-0.8-6.6-0.8c-3.2,0-5.7,0.5-7.4,1.5
								c-1.8,1-3,2.3-3.7,4c-0.7,1.6-1.1,5.1-1.1,10.4v29.8h-6.4v6.8h6.4v12.8l8.7,5.3v-18.1h8.8v-6.8h-8.8v-30.3
								c0-2.5,0.2-4.1,0.5-4.8c0.3-0.7,0.8-1.3,1.5-1.7c0.7-0.4,1.7-0.6,3-0.6C369.8,158.6,371,158.7,372.6,158.9z"/>
						</g>
						<g>
							<path id="ArialMT-105_1_" class="st1" d="M381.3,212.5v10.1h8.8v-10.1H381.3z M381.3,151.1v51.9h8.8v-51.9H381.3z"/>
						</g>
						<g>
							<path id="ArialMT-111" class="st1" d="M400.2,177c0,9.6,2.7,16.7,8,21.3c4.5,3.8,9.9,5.8,16.3,5.8c7.1,0,12.9-2.3,17.5-7
								c4.5-4.7,6.8-11.1,6.8-19.4c0-6.7-1-11.9-3-15.8c-2-3.8-4.9-6.8-8.8-8.9c-3.8-2.1-8-3.2-12.5-3.2c-7.3,0-13.1,2.3-17.6,7
								C402.4,161.5,400.2,168.2,400.2,177z M409.2,177c0-6.6,1.4-11.6,4.3-14.9c2.9-3.3,6.5-5,10.9-5c4.4,0,8,1.7,10.9,5
								c2.9,3.3,4.3,8.4,4.3,15.2c0,6.4-1.5,11.3-4.4,14.6c-2.9,3.3-6.5,5-10.9,5c-4.4,0-8-1.6-10.9-4.9
								C410.7,188.6,409.2,183.6,409.2,177z"/>
						</g>
						<g>
							<path id="ArialMT-110" class="st1" d="M459.1,151.1v51.9h7.9v-7.4c3.8,5.7,9.3,8.5,16.5,8.5c3.1,0,6-0.6,8.6-1.7
								s4.6-2.6,5.9-4.4c1.3-1.8,2.2-4,2.7-6.5c0.3-1.6,0.5-4.5,0.5-8.5v-31.9h-8.8v31.5c0,3.6-0.3,6.3-1,8
								c-0.7,1.8-1.9,3.2-3.6,4.2c-1.7,1.1-3.8,1.6-6.1,1.6c-3.8,0-7-1.2-9.7-3.6s-4.1-6.9-4.1-13.5v-28.3H459.1z"/>
						</g>
						<g>
							<path id="ArialMT-97_1_" class="st1" d="M548.5,157.5c-3.3-2.8-6.4-4.7-9.4-5.9c-3-1.1-6.2-1.7-9.7-1.7
								c-5.7,0-10.1,1.4-13.1,4.2s-4.6,6.3-4.6,10.7c0,2.5,0.6,4.9,1.7,7c1.2,2.1,2.7,3.8,4.5,5.1c1.9,1.3,4,2.2,6.3,2.9
								c1.7,0.5,4.3,0.9,7.8,1.3c7.1,0.8,12.3,1.8,15.7,3c0,1.2,0,2,0,2.3c0,3.6-0.8,6.1-2.5,7.6c-2.2,2-5.6,3-10,3
								c-4.1,0-7.2-0.7-9.2-2.2c-2-1.4-3.4-4-4.4-7.7l-8.6,1.2c0.8,3.7,2.1,6.6,3.9,8.9c1.8,2.3,4.4,4,7.8,5.2
								c3.4,1.2,7.3,1.8,11.8,1.8c4.4,0,8-0.5,10.8-1.6c2.8-1,4.8-2.4,6.1-3.9c1.3-1.6,2.2-3.6,2.7-6c0.3-1.5,0.4-4.2,0.4-8.1v-11.7
								c0-8.2,0.2-13.3,0.6-15.5c0.4-2.2,1.1-4.2,2.2-6.2h-9.2C549.4,152.9,548.8,155,548.5,157.5z M547.8,177.1
								c-3.2-1.3-8-2.4-14.4-3.3c-3.6-0.5-6.2-1.1-7.7-1.8c-1.5-0.6-2.6-1.6-3.5-2.8c-0.8-1.2-1.2-2.6-1.2-4.2
								c0-2.3,0.9-4.3,2.7-5.9c1.8-1.6,4.4-2.3,7.8-2.3c3.4,0,6.4,0.7,9,2.2c2.6,1.5,4.6,3.5,5.8,6.1c0.9,2,1.4,4.9,1.4,8.8V177.1z"
								/>
						</g>
						<g>
							<path id="ArialMT-108" class="st1" d="M570.1,151.1v71.6h8.8v-71.6H570.1z"/>
						</g>
					</g>
				</g>
			</g>
			<g id="xtick_2">
				<g id="text_2">
					<g transform="translate(276.366797 269.373594)scale(0.11 -0.11)">
						<g>
							<path id="ArialMT-90" class="st1" d="M121.1,151.1v8.8l36.7,45.8c2.6,3.2,5.1,6.1,7.4,8.5h-39.9v8.4h51.3v-8.4l-40.2-49.7
								l-4.3-5h45.7v-8.5H121.1z"/>
						</g>
						<g>
							<path id="ArialMT-111_1_" class="st1" d="M183.5,177c0,9.6,2.7,16.7,8,21.3c4.5,3.8,9.9,5.8,16.3,5.8c7.1,0,12.9-2.3,17.5-7
								c4.5-4.7,6.8-11.1,6.8-19.4c0-6.7-1-11.9-3-15.8c-2-3.8-4.9-6.8-8.8-8.9c-3.8-2.1-8-3.2-12.5-3.2c-7.3,0-13.1,2.3-17.6,7
								C185.7,161.5,183.5,168.2,183.5,177z M192.5,177c0-6.6,1.4-11.6,4.3-14.9c2.9-3.3,6.5-5,10.9-5c4.4,0,8,1.7,10.9,5
								c2.9,3.3,4.3,8.4,4.3,15.2c0,6.4-1.5,11.3-4.4,14.6c-2.9,3.3-6.5,5-10.9,5c-4.4,0-8-1.6-10.9-4.9
								C194,188.6,192.5,183.6,192.5,177z"/>
						</g>
						<g>
							<path id="ArialMT-111_2_" class="st1" d="M239.1,177c0,9.6,2.7,16.7,8,21.3c4.5,3.8,9.9,5.8,16.3,5.8c7.1,0,12.9-2.3,17.5-7
								c4.5-4.7,6.8-11.1,6.8-19.4c0-6.7-1-11.9-3-15.8c-2-3.8-4.9-6.8-8.8-8.9c-3.8-2.1-8-3.2-12.5-3.2c-7.3,0-13.1,2.3-17.6,7
								C241.3,161.5,239.1,168.2,239.1,177z M248.1,177c0-6.6,1.4-11.6,4.3-14.9c2.9-3.3,6.5-5,10.9-5c4.4,0,8,1.7,10.9,5
								c2.9,3.3,4.3,8.4,4.3,15.2c0,6.4-1.5,11.3-4.4,14.6c-2.9,3.3-6.5,5-10.9,5c-4.4,0-8-1.6-10.9-4.9
								C249.6,188.6,248.1,183.6,248.1,177z"/>
						</g>
						<g>
							<path id="ArialMT-109" class="st1" d="M298,151.1v51.9h7.9v-7.3c1.6,2.5,3.8,4.6,6.5,6.1c2.7,1.6,5.8,2.3,9.2,2.3
								c3.8,0,7-0.8,9.5-2.4c2.5-1.6,4.2-3.8,5.2-6.7c4.1,6.1,9.4,9.1,16,9.1c5.1,0,9.1-1.4,11.9-4.3c2.8-2.8,4.2-7.2,4.2-13.2
								v-35.6h-8.8v32.7c0,3.5-0.3,6-0.9,7.6c-0.6,1.6-1.6,2.8-3.1,3.7c-1.5,0.9-3.2,1.4-5.3,1.4c-3.6,0-6.7-1.2-9.1-3.6
								c-2.4-2.4-3.6-6.3-3.6-11.6v-30.1h-8.8v33.7c0,3.9-0.7,6.8-2.2,8.8c-1.4,2-3.8,2.9-7,2.9c-2.5,0-4.8-0.7-6.9-2
								c-2.1-1.3-3.6-3.2-4.6-5.7c-0.9-2.5-1.4-6.1-1.4-10.8v-26.9H298z"/>
						</g>
						<g>
							<path id="ArialMT-66" class="st1" d="M382,151.1v71.6h26.9c5.5,0,9.9-0.7,13.2-2.2c3.3-1.4,5.9-3.7,7.8-6.7
								c1.9-3,2.8-6.2,2.8-9.5c0-3.1-0.8-5.9-2.5-8.6c-1.7-2.7-4.2-4.9-7.5-6.5c4.3-1.3,7.6-3.4,10-6.5c2.3-3.1,3.5-6.7,3.5-10.8
								c0-3.4-0.7-6.5-2.1-9.4c-1.4-2.9-3.2-5.1-5.2-6.7c-2.1-1.6-4.7-2.7-7.8-3.5c-3.1-0.8-7-1.2-11.5-1.2H382z M391.5,192.6H407
								c4.2,0,7.2,0.3,9,0.8c2.4,0.7,4.2,1.9,5.4,3.6c1.2,1.7,1.8,3.8,1.8,6.3c0,2.4-0.6,4.5-1.7,6.3c-1.1,1.8-2.8,3.1-4.9,3.7
								c-2.1,0.7-5.7,1-10.9,1h-14.3V192.6z M391.5,159.5h17.8c3.1,0,5.2,0.1,6.4,0.3c2.2,0.4,4,1,5.5,1.9c1.5,0.9,2.7,2.2,3.6,4
								c0.9,1.7,1.4,3.8,1.4,6c0,2.7-0.7,5-2,7c-1.4,2-3.3,3.4-5.7,4.2c-2.4,0.8-5.9,1.2-10.5,1.2h-16.5V159.5z"/>
						</g>
						<g>
							<path id="ArialMT-111_3_" class="st1" d="M444.7,177c0,9.6,2.7,16.7,8,21.3c4.5,3.8,9.9,5.8,16.3,5.8c7.1,0,12.9-2.3,17.5-7
								c4.5-4.7,6.8-11.1,6.8-19.4c0-6.7-1-11.9-3-15.8c-2-3.8-4.9-6.8-8.8-8.9c-3.8-2.1-8-3.2-12.5-3.2c-7.3,0-13.1,2.3-17.6,7
								C446.9,161.5,444.7,168.2,444.7,177z M453.7,177c0-6.6,1.4-11.6,4.3-14.9c2.9-3.3,6.5-5,10.9-5c4.4,0,8,1.7,10.9,5
								c2.9,3.3,4.3,8.4,4.3,15.2c0,6.4-1.5,11.3-4.4,14.6c-2.9,3.3-6.5,5-10.9,5c-4.4,0-8-1.6-10.9-4.9
								C455.2,188.6,453.7,183.6,453.7,177z"/>
						</g>
						<g>
							<path id="ArialMT-97_2_" class="st1" d="M537.4,157.5c-3.3-2.8-6.4-4.7-9.4-5.9c-3-1.1-6.2-1.7-9.7-1.7
								c-5.7,0-10.1,1.4-13.1,4.2s-4.6,6.3-4.6,10.7c0,2.5,0.6,4.9,1.7,7c1.2,2.1,2.7,3.8,4.5,5.1c1.9,1.3,4,2.2,6.3,2.9
								c1.7,0.5,4.3,0.9,7.8,1.3c7.1,0.8,12.3,1.8,15.7,3c0,1.2,0,2,0,2.3c0,3.6-0.8,6.1-2.5,7.6c-2.2,2-5.6,3-10,3
								c-4.1,0-7.2-0.7-9.2-2.2c-2-1.4-3.4-4-4.4-7.7l-8.6,1.2c0.8,3.7,2.1,6.6,3.9,8.9c1.8,2.3,4.4,4,7.8,5.2
								c3.4,1.2,7.3,1.8,11.8,1.8c4.4,0,8-0.5,10.8-1.6c2.8-1,4.8-2.4,6.1-3.9c1.3-1.6,2.2-3.6,2.7-6c0.3-1.5,0.4-4.2,0.4-8.1v-11.7
								c0-8.2,0.2-13.3,0.6-15.5c0.4-2.2,1.1-4.2,2.2-6.2h-9.2C538.3,152.9,537.7,155,537.4,157.5z M536.7,177.1
								c-3.2-1.3-8-2.4-14.4-3.3c-3.6-0.5-6.2-1.1-7.7-1.8c-1.5-0.6-2.6-1.6-3.5-2.8c-0.8-1.2-1.2-2.6-1.2-4.2
								c0-2.3,0.9-4.3,2.7-5.9c1.8-1.6,4.4-2.3,7.8-2.3c3.4,0,6.4,0.7,9,2.2c2.6,1.5,4.6,3.5,5.8,6.1c0.9,2,1.4,4.9,1.4,8.8V177.1z"
								/>
						</g>
						<g>
							<path id="ArialMT-114_1_" class="st1" d="M559.1,151.1v51.9h7.9v-7.9c2,3.7,3.9,6.1,5.6,7.3c1.7,1.2,3.6,1.8,5.6,1.8
								c3,0,6-0.9,9-2.8l-3-8.2c-2.1,1.3-4.3,1.9-6.4,1.9c-1.9,0-3.7-0.6-5.2-1.7s-2.6-2.8-3.3-4.8c-1-3.1-1.5-6.5-1.5-10.2v-27.2
								H559.1z"/>
						</g>
						<g>
							<path id="ArialMT-100_1_" class="st1" d="M626.1,151.1v6.5c-3.3-5.1-8.1-7.7-14.5-7.7c-4.1,0-7.9,1.1-11.4,3.4
								s-6.2,5.5-8.1,9.5c-1.9,4.1-2.8,8.8-2.8,14.1c0,5.2,0.9,9.9,2.6,14.1c1.7,4.2,4.3,7.4,7.8,9.7c3.5,2.2,7.3,3.4,11.6,3.4
								c3.1,0,5.9-0.7,8.3-2c2.4-1.3,4.4-3,6-5.1v25.7h8.7v-71.6H626.1z M598.4,176.9c0-6.6,1.4-11.6,4.2-14.9
								c2.8-3.3,6.1-4.9,9.9-4.9c3.8,0,7.1,1.6,9.8,4.7c2.7,3.1,4,7.9,4,14.4c0,7.1-1.4,12.3-4.1,15.6c-2.7,3.3-6.1,5-10.1,5
								c-3.9,0-7.2-1.6-9.8-4.8C599.7,188.8,598.4,183.8,598.4,176.9z"/>
						</g>
					</g>
				</g>
			</g>
			<g id="text_3">
				<g transform="translate(180.718125 284.149219)scale(0.12 -0.12)">
					<g>
						<path id="ArialMT-75" class="st1" d="M116.5,138.5v71.6h9.5v-35.5l35.5,35.5h12.8l-30-29l31.3-42.6h-12.5l-25.5,36.2
							l-11.7-11.4v-24.8H116.5z"/>
					</g>
					<g>
						<path id="ArialMT-101" class="st1" d="M217.9,155.2l9.1-1.1c-1.4-5.3-4.1-9.4-8-12.4c-3.9-2.9-8.8-4.4-14.8-4.4
							c-7.6,0-13.6,2.3-18,7c-4.4,4.7-6.7,11.2-6.7,19.7c0,8.7,2.2,15.5,6.7,20.3c4.5,4.8,10.3,7.2,17.5,7.2c6.9,0,12.6-2.4,17-7.1
							s6.6-11.4,6.6-19.9c0-0.5,0-1.3,0-2.3h-38.7c0.3-5.7,1.9-10.1,4.8-13.1c2.9-3,6.5-4.5,10.8-4.5c3.2,0,6,0.8,8.2,2.5
							C214.8,148.8,216.6,151.5,217.9,155.2z M189.1,169.4h29c-0.4,4.4-1.5,7.6-3.3,9.8c-2.8,3.4-6.4,5.1-10.9,5.1
							c-4,0-7.4-1.3-10.2-4C190.9,177.5,189.4,173.9,189.1,169.4z"/>
					</g>
					<g>
						<path id="ArialMT-121" class="st1" d="M237.7,118.5l-1,8.2c1.9-0.5,3.6-0.8,5-0.8c2,0,3.5,0.3,4.7,1c1.2,0.6,2.1,1.6,2.9,2.7
							c0.6,0.9,1.4,3.1,2.7,6.5c0.2,0.5,0.4,1.2,0.8,2.2l-19.7,52h9.5l10.8-30c1.4-3.8,2.7-7.8,3.8-12c1,4,2.2,8,3.6,11.8l11.1,30.2
							h8.8l-19.7-52.7c-2.1-5.7-3.8-9.6-4.9-11.8c-1.6-2.9-3.4-5-5.4-6.4c-2-1.4-4.4-2-7.2-2C241.6,117.4,239.7,117.8,237.7,118.5z"
							/>
					</g>
					<g>
						<path id="ArialMT-98" class="st1" d="M296.2,138.5H288v71.6h8.8v-25.5c3.7,4.7,8.5,7,14.2,7c3.2,0,6.2-0.6,9-1.9
							c2.9-1.3,5.2-3.1,7-5.4c1.8-2.3,3.3-5.1,4.3-8.4c1-3.3,1.6-6.8,1.6-10.5c0-8.9-2.2-15.8-6.6-20.6c-4.4-4.8-9.7-7.3-15.8-7.3
							c-6.1,0-10.9,2.6-14.4,7.7V138.5z M296.1,164.8c0-6.2,0.8-10.7,2.5-13.5c2.8-4.5,6.5-6.8,11.2-6.8c3.8,0,7.2,1.7,10,5
							c2.8,3.3,4.2,8.3,4.2,14.9c0,6.8-1.3,11.8-4,15s-5.9,4.8-9.7,4.8c-3.8,0-7.2-1.7-10-5C297.5,175.9,296.1,171.1,296.1,164.8z"
							/>
					</g>
					<g>
						<path id="ArialMT-111_4_" class="st1" d="M340.4,164.4c0,9.6,2.7,16.7,8,21.3c4.5,3.8,9.9,5.8,16.3,5.8c7.1,0,12.9-2.3,17.5-7
							c4.5-4.7,6.8-11.1,6.8-19.4c0-6.7-1-11.9-3-15.8c-2-3.8-4.9-6.8-8.8-8.9c-3.8-2.1-8-3.2-12.5-3.2c-7.3,0-13.1,2.3-17.6,7
							C342.6,148.9,340.4,155.7,340.4,164.4z M349.4,164.4c0-6.6,1.4-11.6,4.3-14.9c2.9-3.3,6.5-5,10.9-5c4.4,0,8,1.7,10.9,5
							c2.9,3.3,4.3,8.4,4.3,15.2c0,6.4-1.5,11.3-4.4,14.6c-2.9,3.3-6.5,5-10.9,5c-4.4,0-8-1.6-10.9-4.9
							C350.9,176,349.4,171,349.4,164.4z"/>
					</g>
					<g>
						<path id="ArialMT-97_3_" class="st1" d="M433.1,144.9c-3.3-2.8-6.4-4.7-9.4-5.9c-3-1.1-6.2-1.7-9.7-1.7
							c-5.7,0-10.1,1.4-13.1,4.2s-4.6,6.3-4.6,10.7c0,2.5,0.6,4.9,1.7,7c1.2,2.1,2.7,3.8,4.5,5.1c1.9,1.3,4,2.2,6.3,2.9
							c1.7,0.5,4.3,0.9,7.8,1.3c7.1,0.8,12.3,1.8,15.7,3c0,1.2,0,2,0,2.3c0,3.6-0.8,6.1-2.5,7.6c-2.2,2-5.6,3-10,3
							c-4.1,0-7.2-0.7-9.2-2.2c-2-1.4-3.4-4-4.4-7.7l-8.6,1.2c0.8,3.7,2.1,6.6,3.9,8.9c1.8,2.3,4.4,4,7.8,5.2
							c3.4,1.2,7.3,1.8,11.8,1.8c4.4,0,8-0.5,10.8-1.6c2.8-1,4.8-2.4,6.1-3.9c1.3-1.6,2.2-3.6,2.7-6c0.3-1.5,0.4-4.2,0.4-8.1v-11.7
							c0-8.2,0.2-13.3,0.6-15.5c0.4-2.2,1.1-4.2,2.2-6.2h-9.2C434,140.3,433.4,142.4,433.1,144.9z M432.4,164.5
							c-3.2-1.3-8-2.4-14.4-3.3c-3.6-0.5-6.2-1.1-7.7-1.8c-1.5-0.6-2.6-1.6-3.5-2.8c-0.8-1.2-1.2-2.6-1.2-4.2c0-2.3,0.9-4.3,2.7-5.9
							c1.8-1.6,4.4-2.3,7.8-2.3c3.4,0,6.4,0.7,9,2.2c2.6,1.5,4.6,3.5,5.8,6.1c0.9,2,1.4,4.9,1.4,8.8V164.5z"/>
					</g>
					<g>
						<path id="ArialMT-114_2_" class="st1" d="M454.8,138.5v51.9h7.9v-7.9c2,3.7,3.9,6.1,5.6,7.3c1.7,1.2,3.6,1.8,5.6,1.8
							c3,0,6-0.9,9-2.8l-3-8.2c-2.1,1.3-4.3,1.9-6.4,1.9c-1.9,0-3.7-0.6-5.2-1.7s-2.6-2.8-3.3-4.8c-1-3.1-1.5-6.5-1.5-10.2v-27.2
							H454.8z"/>
					</g>
					<g>
						<path id="ArialMT-100_2_" class="st1" d="M521.8,138.5v6.5c-3.3-5.1-8.1-7.7-14.5-7.7c-4.1,0-7.9,1.1-11.4,3.4
							s-6.2,5.5-8.1,9.5c-1.9,4.1-2.8,8.8-2.8,14.1c0,5.2,0.9,9.9,2.6,14.1c1.7,4.2,4.3,7.4,7.8,9.7c3.5,2.2,7.3,3.4,11.6,3.4
							c3.1,0,5.9-0.7,8.3-2c2.4-1.3,4.4-3,6-5.1v25.7h8.7v-71.6H521.8z M494.1,164.4c0-6.6,1.4-11.6,4.2-14.9
							c2.8-3.3,6.1-4.9,9.9-4.9c3.8,0,7.1,1.6,9.8,4.7c2.7,3.1,4,7.9,4,14.4c0,7.1-1.4,12.3-4.1,15.6c-2.7,3.3-6.1,5-10.1,5
							c-3.9,0-7.2-1.6-9.8-4.8C495.4,176.3,494.1,171.2,494.1,164.4z"/>
					</g>
					<g>
						<path id="ArialMT-32" class="st1" d="M537.2,138.5"/>
					</g>
					<g>
						<path id="ArialMT-84_1_" class="st1" d="M590.9,138.5v63.1h-23.6v8.4h56.7v-8.4h-23.7v-63.1H590.9z"/>
					</g>
					<g>
						<path id="ArialMT-121_1_" class="st1" d="M632.2,118.5l-1,8.2c1.9-0.5,3.6-0.8,5-0.8c2,0,3.5,0.3,4.7,1
							c1.2,0.6,2.1,1.6,2.9,2.7c0.6,0.9,1.4,3.1,2.7,6.5c0.2,0.5,0.4,1.2,0.8,2.2l-19.7,52h9.5l10.8-30c1.4-3.8,2.7-7.8,3.8-12
							c1,4,2.2,8,3.6,11.8l11.1,30.2h8.8l-19.7-52.7c-2.1-5.7-3.8-9.6-4.9-11.8c-1.6-2.9-3.4-5-5.4-6.4c-2-1.4-4.4-2-7.2-2
							C636.2,117.4,634.3,117.8,632.2,118.5z"/>
					</g>
					<g>
						<path id="ArialMT-112" class="st1" d="M682.6,118.6v71.7h8v-6.7c1.9,2.6,4,4.6,6.4,5.9c2.4,1.3,5.3,2,8.6,2
							c4.4,0,8.3-1.1,11.7-3.4c3.4-2.3,5.9-5.5,7.7-9.7c1.7-4.1,2.6-8.7,2.6-13.6c0-5.3-1-10.1-2.9-14.3c-1.9-4.2-4.7-7.5-8.3-9.8
							c-3.6-2.3-7.4-3.4-11.5-3.4c-2.9,0-5.6,0.6-7.9,1.9c-2.3,1.2-4.2,2.8-5.7,4.7v-25.3H682.6z M690.5,164.1
							c0-6.7,1.3-11.6,4-14.8c2.7-3.2,6-4.8,9.8-4.8c3.9,0,7.2,1.7,10,5c2.8,3.3,4.2,8.4,4.2,15.4c0,6.6-1.4,11.5-4.1,14.8
							c-2.7,3.3-6,4.9-9.7,4.9c-3.8,0-7.1-1.8-10-5.2C692,175.9,690.5,170.8,690.5,164.1z"/>
					</g>
					<g>
						<path id="ArialMT-101_1_" class="st1" d="M773.7,155.2l9.1-1.1c-1.4-5.3-4.1-9.4-8-12.4c-3.9-2.9-8.8-4.4-14.8-4.4
							c-7.6,0-13.6,2.3-18,7c-4.4,4.7-6.7,11.2-6.7,19.7c0,8.7,2.2,15.5,6.7,20.3c4.5,4.8,10.3,7.2,17.5,7.2c6.9,0,12.6-2.4,17-7.1
							c4.4-4.7,6.6-11.4,6.6-19.9c0-0.5,0-1.3,0-2.3h-38.7c0.3-5.7,1.9-10.1,4.8-13.1c2.9-3,6.5-4.5,10.8-4.5c3.2,0,6,0.8,8.2,2.5
							C770.6,148.8,772.4,151.5,773.7,155.2z M744.8,169.4h29c-0.4,4.4-1.5,7.6-3.3,9.8c-2.8,3.4-6.4,5.1-10.9,5.1
							c-4,0-7.4-1.3-10.2-4C746.7,177.5,745.1,173.9,744.8,169.4z"/>
					</g>
				</g>
			</g>
		</g>
		<g id="matplotlib.axis_2">
			<g id="ytick_1">
				<g id="line2d_1">
					<g>
						<defs>
							<rect id="SVGID_1_" x="67.1" y="17.9" width="334.8" height="217.4"/>
						</defs>
						<clipPath id="SVGID_2_">
							<use xlink:href="#SVGID_1_"  style="overflow:visible;"/>
						</clipPath>
						<path class="st2" d="M67.1,235.4h334.8"/>
					</g>
				</g>
				<g id="text_4">
					<g transform="translate(38.382969 255.936797)scale(0.11 -0.11)">
						<g>
							<path id="ArialMT-48" class="st1" d="M123.2,186.4c0,8.5,0.9,15.3,2.6,20.4c1.7,5.2,4.3,9.1,7.8,11.9c3.4,2.8,7.8,4.2,13,4.2
								c3.8,0,7.2-0.8,10.1-2.3c2.9-1.5,5.3-3.8,7.2-6.7c1.9-2.9,3.4-6.5,4.5-10.6c1.1-4.2,1.6-9.8,1.6-16.9
								c0-8.4-0.9-15.2-2.6-20.3c-1.7-5.2-4.3-9.1-7.7-12c-3.4-2.8-7.8-4.2-13-4.2c-6.9,0-12.3,2.5-16.2,7.4
								C125.6,163.2,123.2,172.9,123.2,186.4z M132.3,186.4c0-11.8,1.4-19.6,4.1-23.5c2.8-3.9,6.1-5.8,10.2-5.8c4,0,7.4,2,10.2,5.9
								s4.1,11.7,4.1,23.4c0,11.8-1.4,19.6-4.1,23.5c-2.8,3.9-6.2,5.8-10.3,5.8c-4,0-7.3-1.7-9.7-5.1
								C133.8,206.2,132.3,198.1,132.3,186.4z"/>
						</g>
					</g>
				</g>
			</g>
			<g id="ytick_2">
				<g id="line2d_2">
					<g>
						<defs>
							<rect id="SVGID_3_" x="67.1" y="17.9" width="334.8" height="217.4"/>
						</defs>
						<clipPath id="SVGID_4_">
							<use xlink:href="#SVGID_3_"  style="overflow:visible;"/>
						</clipPath>
						<path class="st3" d="M67.1,194.4h334.8"/>
					</g>
				</g>
				<g id="text_5">
					<g transform="translate(38.382969 214.981233)scale(0.11 -0.11)">
						<g>
							<path id="ArialMT-53" class="st1" d="M123.2,169.8l9.2,0.8c0.7-4.5,2.3-7.9,4.8-10.1c2.5-2.3,5.5-3.4,9-3.4
								c4.2,0,7.8,1.6,10.7,4.8c2.9,3.2,4.4,7.4,4.4,12.7c0,5-1.4,9-4.2,11.9c-2.8,2.9-6.5,4.4-11.1,4.4c-2.8,0-5.4-0.6-7.7-1.9
								c-2.3-1.3-4.1-2.9-5.4-5l-8.2,1.1l6.9,36.8h35.6v-8.4h-28.6l-3.8-19.2c4.3,3,8.8,4.5,13.5,4.5c6.2,0,11.5-2.2,15.8-6.5
								c4.3-4.3,6.5-9.9,6.5-16.7c0-6.5-1.9-12.1-5.7-16.8c-4.6-5.8-10.9-8.7-18.8-8.7c-6.5,0-11.8,1.8-16,5.5
								C126.2,159,123.8,163.8,123.2,169.8z"/>
						</g>
					</g>
				</g>
			</g>
			<g id="ytick_3">
				<g id="line2d_3">
					<g>
						<defs>
							<rect id="SVGID_5_" x="67.1" y="17.9" width="334.8" height="217.4"/>
						</defs>
						<clipPath id="SVGID_6_">
							<use xlink:href="#SVGID_5_"  style="overflow:visible;"/>
						</clipPath>
						<path class="st4" d="M67.1,153.5h334.8"/>
					</g>
				</g>
				<g id="text_6">
					<g transform="translate(32.265937 174.02567)scale(0.11 -0.11)">
						<g>
							<path id="ArialMT-49" class="st1" d="M156.3,151.1h-8.8v56c-2.1-2-4.9-4-8.3-6c-3.4-2-6.5-3.5-9.2-4.5v8.5
								c4.9,2.3,9.2,5.1,12.9,8.4c3.7,3.3,6.3,6.5,7.8,9.6h5.7V151.1z"/>
						</g>
						<g>
							<path id="ArialMT-48_1_" class="st1" d="M178.8,186.4c0,8.5,0.9,15.3,2.6,20.4c1.7,5.2,4.3,9.1,7.8,11.9
								c3.4,2.8,7.8,4.2,13,4.2c3.8,0,7.2-0.8,10.1-2.3c2.9-1.5,5.3-3.8,7.2-6.7c1.9-2.9,3.4-6.5,4.5-10.6c1.1-4.2,1.6-9.8,1.6-16.9
								c0-8.4-0.9-15.2-2.6-20.3c-1.7-5.2-4.3-9.1-7.7-12c-3.4-2.8-7.8-4.2-13-4.2c-6.9,0-12.3,2.5-16.2,7.4
								C181.2,163.2,178.8,172.9,178.8,186.4z M187.9,186.4c0-11.8,1.4-19.6,4.1-23.5c2.8-3.9,6.1-5.8,10.2-5.8c4,0,7.4,2,10.2,5.9
								s4.1,11.7,4.1,23.4c0,11.8-1.4,19.6-4.1,23.5c-2.8,3.9-6.2,5.8-10.3,5.8c-4,0-7.3-1.7-9.7-5.1
								C189.4,206.2,187.9,198.1,187.9,186.4z"/>
						</g>
					</g>
				</g>
			</g>
			<g id="ytick_4">
				<g id="line2d_4">
					<g>
						<defs>
							<rect id="SVGID_7_" x="67.1" y="17.9" width="334.8" height="217.4"/>
						</defs>
						<clipPath id="SVGID_8_">
							<use xlink:href="#SVGID_7_"  style="overflow:visible;"/>
						</clipPath>
						<path class="st5" d="M67.1,112.5h334.8"/>
					</g>
				</g>
				<g id="text_7">
					<g transform="translate(32.265937 133.070106)scale(0.11 -0.11)">
						<g>
							<path id="ArialMT-49_1_" class="st1" d="M156.3,151.1h-8.8v56c-2.1-2-4.9-4-8.3-6s-6.5-3.5-9.2-4.5v8.5
								c4.9,2.3,9.2,5.1,12.9,8.4c3.7,3.3,6.3,6.5,7.8,9.6h5.7V151.1z"/>
						</g>
						<g>
							<path id="ArialMT-53_1_" class="st1" d="M178.8,169.8l9.2,0.8c0.7-4.5,2.3-7.9,4.8-10.1c2.5-2.3,5.5-3.4,9-3.4
								c4.2,0,7.8,1.6,10.7,4.8c2.9,3.2,4.4,7.4,4.4,12.7c0,5-1.4,9-4.2,11.9c-2.8,2.9-6.5,4.4-11.1,4.4c-2.8,0-5.4-0.6-7.7-1.9
								c-2.3-1.3-4.1-2.9-5.4-5l-8.2,1.1l6.9,36.8h35.6v-8.4h-28.6l-3.8-19.2c4.3,3,8.8,4.5,13.5,4.5c6.2,0,11.5-2.2,15.8-6.5
								c4.3-4.3,6.5-9.9,6.5-16.7c0-6.5-1.9-12.1-5.7-16.8c-4.6-5.8-10.9-8.7-18.8-8.7c-6.5,0-11.8,1.8-16,5.5
								C181.8,159,179.4,163.8,178.8,169.8z"/>
						</g>
					</g>
				</g>
			</g>
			<g id="ytick_5">
				<g id="line2d_5">
					<g>
						<defs>
							<rect id="SVGID_9_" x="67.1" y="17.9" width="334.8" height="217.4"/>
						</defs>
						<clipPath id="SVGID_10_">
							<use xlink:href="#SVGID_9_"  style="overflow:visible;"/>
						</clipPath>
						<path class="st6" d="M67.1,71.6h334.8"/>
					</g>
				</g>
				<g id="text_8">
					<g transform="translate(32.265937 92.114542)scale(0.11 -0.11)">
						<g>
							<path id="ArialMT-50" class="st1" d="M169.4,159.5v-8.5h-47.3c-0.1,2.1,0.3,4.2,1,6.1c1.2,3.2,3.1,6.4,5.8,9.5
								c2.7,3.1,6.5,6.7,11.5,10.8c7.8,6.4,13,11.4,15.8,15.2c2.7,3.7,4.1,7.3,4.1,10.6c0,3.5-1.2,6.4-3.8,8.8
								c-2.5,2.4-5.7,3.6-9.7,3.6c-4.2,0-7.6-1.3-10.2-3.8c-2.5-2.5-3.8-6-3.9-10.5l-9,0.9c0.6,6.7,2.9,11.9,7,15.4
								c4,3.5,9.5,5.3,16.3,5.3c6.9,0,12.3-1.9,16.3-5.7c4-3.8,6-8.5,6-14.2c0-2.9-0.6-5.7-1.8-8.5c-1.2-2.8-3.1-5.7-5.8-8.7
								s-7.2-7.3-13.5-12.6c-5.3-4.4-8.7-7.4-10.2-9c-1.5-1.6-2.7-3.2-3.7-4.8H169.4z"/>
						</g>
						<g>
							<path id="ArialMT-48_2_" class="st1" d="M178.8,186.4c0,8.5,0.9,15.3,2.6,20.4c1.7,5.2,4.3,9.1,7.8,11.9
								c3.4,2.8,7.8,4.2,13,4.2c3.8,0,7.2-0.8,10.1-2.3c2.9-1.5,5.3-3.8,7.2-6.7c1.9-2.9,3.4-6.5,4.5-10.6c1.1-4.2,1.6-9.8,1.6-16.9
								c0-8.4-0.9-15.2-2.6-20.3c-1.7-5.2-4.3-9.1-7.7-12c-3.4-2.8-7.8-4.2-13-4.2c-6.9,0-12.3,2.5-16.2,7.4
								C181.2,163.2,178.8,172.9,178.8,186.4z M187.9,186.4c0-11.8,1.4-19.6,4.1-23.5c2.8-3.9,6.1-5.8,10.2-5.8c4,0,7.4,2,10.2,5.9
								s4.1,11.7,4.1,23.4c0,11.8-1.4,19.6-4.1,23.5c-2.8,3.9-6.2,5.8-10.3,5.8c-4,0-7.3-1.7-9.7-5.1
								C189.4,206.2,187.9,198.1,187.9,186.4z"/>
						</g>
					</g>
				</g>
			</g>
			<g id="ytick_6">
				<g id="line2d_6">
					<g>
						<defs>
							<rect id="SVGID_11_" x="67.1" y="17.9" width="334.8" height="217.4"/>
						</defs>
						<clipPath id="SVGID_12_">
							<use xlink:href="#SVGID_11_"  style="overflow:visible;"/>
						</clipPath>
						<path class="st7" d="M67.1,30.6h334.8"/>
					</g>
				</g>
				<g id="text_9">
					<g transform="translate(32.265937 51.158979)scale(0.11 -0.11)">
						<g>
							<path id="ArialMT-50_1_" class="st1" d="M169.4,159.5v-8.5h-47.3c-0.1,2.1,0.3,4.2,1,6.1c1.2,3.2,3.1,6.4,5.8,9.5
								c2.7,3.1,6.5,6.7,11.5,10.8c7.8,6.4,13,11.4,15.8,15.2c2.7,3.7,4.1,7.3,4.1,10.6c0,3.5-1.2,6.4-3.8,8.8
								c-2.5,2.4-5.7,3.6-9.7,3.6c-4.2,0-7.6-1.3-10.2-3.8c-2.5-2.5-3.8-6-3.9-10.5l-9,0.9c0.6,6.7,2.9,11.9,7,15.4
								c4,3.5,9.5,5.3,16.3,5.3c6.9,0,12.3-1.9,16.3-5.7c4-3.8,6-8.5,6-14.2c0-2.9-0.6-5.7-1.8-8.5c-1.2-2.8-3.1-5.7-5.8-8.7
								s-7.2-7.3-13.5-12.6c-5.3-4.4-8.7-7.4-10.2-9c-1.5-1.6-2.7-3.2-3.7-4.8H169.4z"/>
						</g>
						<g>
							<path id="ArialMT-53_2_" class="st1" d="M178.8,169.8l9.2,0.8c0.7-4.5,2.3-7.9,4.8-10.1c2.5-2.3,5.5-3.4,9-3.4
								c4.2,0,7.8,1.6,10.7,4.8c2.9,3.2,4.4,7.4,4.4,12.7c0,5-1.4,9-4.2,11.9c-2.8,2.9-6.5,4.4-11.1,4.4c-2.8,0-5.4-0.6-7.7-1.9
								c-2.3-1.3-4.1-2.9-5.4-5l-8.2,1.1l6.9,36.8h35.6v-8.4h-28.6l-3.8-19.2c4.3,3,8.8,4.5,13.5,4.5c6.2,0,11.5-2.2,15.8-6.5
								c4.3-4.3,6.5-9.9,6.5-16.7c0-6.5-1.9-12.1-5.7-16.8c-4.6-5.8-10.9-8.7-18.8-8.7c-6.5,0-11.8,1.8-16,5.5
								C181.8,159,179.4,163.8,178.8,169.8z"/>
						</g>
					</g>
				</g>
			</g>
			<g id="text_10">
				<g transform="translate(25.740312 196.944375)rotate(-90)scale(0.12 -0.12)">
					<g>
						<path id="ArialMT-84_2_" class="st1" d="M164.4-109.1V-46h-23.6v8.4h56.7V-46h-23.7v-63.1H164.4z"/>
					</g>
					<g>
						<path id="ArialMT-111_5_" class="st1" d="M202.7-83.2c0,9.6,2.7,16.7,8,21.3c4.5,3.8,9.9,5.8,16.3,5.8c7.1,0,12.9-2.3,17.5-7
							c4.5-4.7,6.8-11.1,6.8-19.4c0-6.7-1-11.9-3-15.8c-2-3.8-4.9-6.8-8.8-8.9c-3.8-2.1-8-3.2-12.5-3.2c-7.3,0-13.1,2.3-17.6,7
							C205-98.7,202.7-92,202.7-83.2z M211.8-83.2c0-6.6,1.4-11.6,4.3-14.9c2.9-3.3,6.5-5,10.9-5c4.4,0,8,1.7,10.9,5
							c2.9,3.3,4.3,8.4,4.3,15.2c0,6.4-1.5,11.3-4.4,14.6c-2.9,3.3-6.5,5-10.9,5c-4.4,0-8-1.6-10.9-4.9
							C213.2-71.6,211.8-76.6,211.8-83.2z"/>
					</g>
					<g>
						<path id="ArialMT-116_1_" class="st1" d="M280.8-101.3l1.3-7.8c-2.5-0.5-4.7-0.8-6.6-0.8c-3.2,0-5.7,0.5-7.4,1.5
							c-1.8,1-3,2.3-3.7,4c-0.7,1.6-1.1,5.1-1.1,10.4v29.8h-6.4v6.8h6.4v12.8l8.7,5.3v-18.1h8.8v-6.8h-8.8v-30.3
							c0-2.5,0.2-4.1,0.5-4.8c0.3-0.7,0.8-1.3,1.5-1.7c0.7-0.4,1.7-0.6,3-0.6C277.9-101.6,279.2-101.5,280.8-101.3z"/>
					</g>
					<g>
						<path id="ArialMT-97_4_" class="st1" d="M323.2-102.8c-3.3-2.8-6.4-4.7-9.4-5.9c-3-1.1-6.2-1.7-9.7-1.7
							c-5.7,0-10.1,1.4-13.1,4.2s-4.6,6.3-4.6,10.7c0,2.5,0.6,4.9,1.7,7c1.2,2.1,2.7,3.8,4.5,5.1c1.9,1.3,4,2.2,6.3,2.9
							c1.7,0.5,4.3,0.9,7.8,1.3c7.1,0.8,12.3,1.8,15.7,3c0,1.2,0,2,0,2.3c0,3.6-0.8,6.1-2.5,7.6c-2.2,2-5.6,3-10,3
							c-4.1,0-7.2-0.7-9.2-2.2c-2-1.4-3.4-4-4.4-7.7l-8.6,1.2c0.8,3.7,2.1,6.6,3.9,8.9c1.8,2.3,4.4,4,7.8,5.2
							c3.4,1.2,7.3,1.8,11.8,1.8c4.4,0,8-0.5,10.8-1.6c2.8-1,4.8-2.4,6.1-3.9c1.3-1.6,2.2-3.6,2.7-6c0.3-1.5,0.4-4.2,0.4-8.1v-11.7
							c0-8.2,0.2-13.3,0.6-15.5c0.4-2.2,1.1-4.2,2.2-6.2H325C324.1-107.3,323.5-105.2,323.2-102.8z M322.5-83.1
							c-3.2-1.3-8-2.4-14.4-3.3c-3.6-0.5-6.2-1.1-7.7-1.8c-1.5-0.6-2.6-1.6-3.5-2.8c-0.8-1.2-1.2-2.6-1.2-4.2c0-2.3,0.9-4.3,2.7-5.9
							c1.8-1.6,4.4-2.3,7.8-2.3c3.4,0,6.4,0.7,9,2.2c2.6,1.5,4.6,3.5,5.8,6.1c0.9,2,1.4,4.9,1.4,8.8V-83.1z"/>
					</g>
					<g>
						<path id="ArialMT-108_1_" class="st1" d="M344.8-109.1v71.6h8.8v-71.6H344.8z"/>
					</g>
					<g>
						<path id="ArialMT-32_1_" class="st1" d="M360.6-109.1"/>
					</g>
					<g>
						<path id="ArialMT-69" class="st1" d="M396.3-109.1v71.6h51.8V-46h-42.3v-21.9h39.6v-8.4h-39.6v-24.4h43.9v-8.5H396.3z"/>
					</g>
					<g>
						<path id="ArialMT-114_3_" class="st1" d="M461.6-109.1v51.9h7.9v-7.9c2,3.7,3.9,6.1,5.6,7.3c1.7,1.2,3.6,1.8,5.6,1.8
							c3,0,6-0.9,9-2.8l-3-8.2c-2.1,1.3-4.3,1.9-6.4,1.9c-1.9,0-3.7-0.6-5.2-1.7s-2.6-2.8-3.3-4.8c-1-3.1-1.5-6.5-1.5-10.2v-27.2
							H461.6z"/>
					</g>
					<g>
						<path id="ArialMT-114_4_" class="st1" d="M494.9-109.1v51.9h7.9v-7.9c2,3.7,3.9,6.1,5.6,7.3c1.7,1.2,3.6,1.8,5.6,1.8
							c3,0,6-0.9,9-2.8l-3-8.2c-2.1,1.3-4.3,1.9-6.4,1.9c-1.9,0-3.7-0.6-5.2-1.7s-2.6-2.8-3.3-4.8c-1-3.1-1.5-6.5-1.5-10.2v-27.2
							H494.9z"/>
					</g>
					<g>
						<path id="ArialMT-111_6_" class="st1" d="M525-83.2c0,9.6,2.7,16.7,8,21.3c4.5,3.8,9.9,5.8,16.3,5.8c7.1,0,12.9-2.3,17.5-7
							c4.5-4.7,6.8-11.1,6.8-19.4c0-6.7-1-11.9-3-15.8c-2-3.8-4.9-6.8-8.8-8.9c-3.8-2.1-8-3.2-12.5-3.2c-7.3,0-13.1,2.3-17.6,7
							C527.3-98.7,525-92,525-83.2z M534.1-83.2c0-6.6,1.4-11.6,4.3-14.9c2.9-3.3,6.5-5,10.9-5c4.4,0,8,1.7,10.9,5
							c2.9,3.3,4.3,8.4,4.3,15.2c0,6.4-1.5,11.3-4.4,14.6c-2.9,3.3-6.5,5-10.9,5c-4.4,0-8-1.6-10.9-4.9
							C535.5-71.6,534.1-76.6,534.1-83.2z"/>
					</g>
					<g>
						<path id="ArialMT-114_5_" class="st1" d="M583.8-109.1v51.9h7.9v-7.9c2,3.7,3.9,6.1,5.6,7.3c1.7,1.2,3.6,1.8,5.6,1.8
							c3,0,6-0.9,9-2.8l-3-8.2c-2.1,1.3-4.3,1.9-6.4,1.9c-1.9,0-3.7-0.6-5.2-1.7s-2.6-2.8-3.3-4.8c-1-3.1-1.5-6.5-1.5-10.2v-27.2
							H583.8z"/>
					</g>
					<g>
						<path id="ArialMT-32_2_" class="st1" d="M610.6-109.1"/>
					</g>
					<g>
						<path id="ArialMT-82" class="st1" d="M646.3-109.1v71.6H678c6.4,0,11.2-0.6,14.5-1.9c3.3-1.3,6-3.6,8-6.8c2-3.2,3-6.8,3-10.8
							c0-5.1-1.6-9.4-4.9-12.8c-3.3-3.5-8.4-5.7-15.2-6.6c2.5-1.2,4.4-2.4,5.7-3.6c2.8-2.5,5.4-5.7,7.9-9.5l12.5-19.5h-11.9
							L688-94.3c-2.8,4.3-5.1,7.6-6.8,9.9c-1.8,2.3-3.4,3.9-4.8,4.8c-1.4,0.9-2.9,1.6-4.3,1.9c-1.1,0.2-2.8,0.3-5.3,0.3h-11v-31.8
							H646.3z M655.7-69.2h20.4c4.3,0,7.7,0.4,10.1,1.3c2.4,0.9,4.3,2.3,5.6,4.3c1.3,2,1.9,4.1,1.9,6.4c0,3.4-1.2,6.2-3.7,8.3
							c-2.5,2.2-6.3,3.3-11.7,3.3h-22.7V-69.2z"/>
					</g>
					<g>
						<path id="ArialMT-97_5_" class="st1" d="M751.1-102.8c-3.3-2.8-6.4-4.7-9.4-5.9c-3-1.1-6.2-1.7-9.7-1.7
							c-5.7,0-10.1,1.4-13.1,4.2s-4.6,6.3-4.6,10.7c0,2.5,0.6,4.9,1.7,7c1.2,2.1,2.7,3.8,4.5,5.1c1.9,1.3,4,2.2,6.3,2.9
							c1.7,0.5,4.3,0.9,7.8,1.3c7.1,0.8,12.3,1.8,15.7,3c0,1.2,0,2,0,2.3c0,3.6-0.8,6.1-2.5,7.6c-2.2,2-5.6,3-10,3
							c-4.1,0-7.2-0.7-9.2-2.2c-2-1.4-3.4-4-4.4-7.7l-8.6,1.2c0.8,3.7,2.1,6.6,3.9,8.9c1.8,2.3,4.4,4,7.8,5.2
							c3.4,1.2,7.3,1.8,11.8,1.8c4.4,0,8-0.5,10.8-1.6c2.8-1,4.8-2.4,6.1-3.9c1.3-1.6,2.2-3.6,2.7-6c0.3-1.5,0.4-4.2,0.4-8.1v-11.7
							c0-8.2,0.2-13.3,0.6-15.5c0.4-2.2,1.1-4.2,2.2-6.2h-9.2C751.9-107.3,751.3-105.2,751.1-102.8z M750.3-83.1
							c-3.2-1.3-8-2.4-14.4-3.3c-3.6-0.5-6.2-1.1-7.7-1.8c-1.5-0.6-2.6-1.6-3.5-2.8c-0.8-1.2-1.2-2.6-1.2-4.2c0-2.3,0.9-4.3,2.7-5.9
							c1.8-1.6,4.4-2.3,7.8-2.3c3.4,0,6.4,0.7,9,2.2c2.6,1.5,4.6,3.5,5.8,6.1c0.9,2,1.4,4.9,1.4,8.8V-83.1z"/>
					</g>
					<g>
						<path id="ArialMT-116_2_" class="st1" d="M792-101.3l1.3-7.8c-2.5-0.5-4.7-0.8-6.6-0.8c-3.2,0-5.7,0.5-7.4,1.5
							c-1.8,1-3,2.3-3.7,4c-0.7,1.6-1.1,5.1-1.1,10.4v29.8H768v6.8h6.4v12.8l8.7,5.3v-18.1h8.8v-6.8h-8.8v-30.3
							c0-2.5,0.2-4.1,0.5-4.8c0.3-0.7,0.8-1.3,1.5-1.7c0.7-0.4,1.7-0.6,3-0.6C789.1-101.6,790.4-101.5,792-101.3z"/>
					</g>
					<g>
						<path id="ArialMT-101_2_" class="st1" d="M836.1-92.4l9.1-1.1c-1.4-5.3-4.1-9.4-8-12.4c-3.9-2.9-8.8-4.4-14.8-4.4
							c-7.6,0-13.6,2.3-18,7c-4.4,4.7-6.7,11.2-6.7,19.7c0,8.7,2.2,15.5,6.7,20.3c4.5,4.8,10.3,7.2,17.5,7.2c6.9,0,12.6-2.4,17-7.1
							c4.4-4.7,6.6-11.4,6.6-19.9c0-0.5,0-1.3,0-2.3h-38.7c0.3-5.7,1.9-10.1,4.8-13.1c2.9-3,6.5-4.5,10.8-4.5c3.2,0,6,0.8,8.2,2.5
							C833-98.9,834.8-96.2,836.1-92.4z M807.3-78.2h29c-0.4,4.4-1.5,7.6-3.3,9.8c-2.8,3.4-6.4,5.1-10.9,5.1c-4,0-7.4-1.3-10.2-4
							C809.1-70.1,807.5-73.7,807.3-78.2z"/>
					</g>
					<g>
						<path id="ArialMT-32_3_" class="st1" d="M849.6-109.1"/>
					</g>
					<g>
						<path id="ArialMT-40" class="st1" d="M900.8-130.2c-4.9,6.1-9,13.3-12.3,21.5c-3.3,8.2-5,16.7-5,25.5c0,7.8,1.2,15.2,3.8,22.3
							c2.9,8.2,7.5,16.4,13.6,24.6h6.3c-3.9-6.8-6.5-11.6-7.8-14.5c-2-4.5-3.6-9.2-4.7-14.1c-1.4-6.1-2.1-12.2-2.1-18.4
							c0-15.7,4.9-31.3,14.6-46.9H900.8z"/>
					</g>
					<g>
						<path id="ArialMT-37" class="st1" d="M916.5-54.8c0,5.1,1.3,9.5,3.9,13c2.6,3.6,6.3,5.4,11.2,5.4c4.5,0,8.2-1.6,11.2-4.8
							c2.9-3.2,4.4-7.9,4.4-14.1c0-6.1-1.5-10.7-4.5-14c-3-3.3-6.6-4.9-11-4.9c-4.3,0-7.9,1.6-10.8,4.8
							C918-66.1,916.5-61.3,916.5-54.8z M931.8-42.4c-2.2,0-4-0.9-5.4-2.8c-1.4-1.9-2.2-5.3-2.2-10.4c0-4.6,0.7-7.8,2.2-9.7
							c1.5-1.9,3.3-2.8,5.4-2.8c2.2,0,4.1,0.9,5.5,2.8c1.4,1.9,2.2,5.3,2.2,10.4c0,4.6-0.7,7.9-2.2,9.7
							C935.8-43.3,934-42.4,931.8-42.4z M931.9-111.8L971-36.4h7.1l-39-75.4H931.9z M962.8-92.4c0,5.1,1.3,9.5,3.9,13.1
							c2.6,3.6,6.3,5.3,11.2,5.3c4.5,0,8.2-1.6,11.2-4.8c2.9-3.2,4.4-7.9,4.4-14.1c0-6.1-1.5-10.7-4.5-14c-3-3.3-6.7-4.9-11.1-4.9
							c-4.3,0-7.9,1.6-10.8,4.9C964.3-103.7,962.8-98.8,962.8-92.4z M978.2-80c-2.2,0-4.1-0.9-5.5-2.8c-1.4-1.9-2.2-5.3-2.2-10.4
							c0-4.6,0.7-7.8,2.2-9.7c1.5-1.9,3.3-2.8,5.4-2.8c2.2,0,4.1,0.9,5.5,2.8c1.4,1.9,2.2,5.3,2.2,10.4c0,4.6-0.7,7.9-2.2,9.7
							C982.2-80.9,980.3-80,978.2-80z"/>
					</g>
					<g>
						<path id="ArialMT-41" class="st1" d="M1012-130.2h-6.3c9.7,15.6,14.6,31.3,14.6,46.9c0,6.1-0.7,12.2-2.1,18.2
							c-1.1,4.9-2.7,9.6-4.6,14.1c-1.3,2.9-3.9,7.8-7.9,14.6h6.3c6.1-8.2,10.6-16.4,13.6-24.6c2.5-7.1,3.8-14.5,3.8-22.3
							c0-8.8-1.7-17.3-5.1-25.5C1020.9-116.9,1016.8-124.1,1012-130.2z"/>
					</g>
				</g>
			</g>
		</g>
		<g id="patch_3">
			<g>
				<defs>
					<rect id="SVGID_13_" x="67.1" y="17.9" width="334.8" height="217.4"/>
				</defs>
				<clipPath id="SVGID_14_">
					<use xlink:href="#SVGID_13_"  style="overflow:visible;"/>
				</clipPath>
				<path class="st8" d="M83.8,235.4h67v-142h-67V235.4z"/>
			</g>
		</g>
		<g id="patch_4">
			<g>
				<defs>
					<rect id="SVGID_15_" x="67.1" y="17.9" width="334.8" height="217.4"/>
				</defs>
				<clipPath id="SVGID_16_">
					<use xlink:href="#SVGID_15_"  style="overflow:visible;"/>
				</clipPath>
				<path class="st9" d="M251.2,235.4h67v-24.7h-67V235.4z"/>
			</g>
		</g>
		<g id="patch_5">
			<g>
				<defs>
					<rect id="SVGID_17_" x="67.1" y="17.9" width="334.8" height="217.4"/>
				</defs>
				<clipPath id="SVGID_18_">
					<use xlink:href="#SVGID_17_"  style="overflow:visible;"/>
				</clipPath>
				<path class="st10" d="M150.8,235.4h67V77.1h-67V235.4z"/>
			</g>
		</g>
		<g id="patch_6">
			<g>
				<defs>
					<rect id="SVGID_19_" x="67.1" y="17.9" width="334.8" height="217.4"/>
				</defs>
				<clipPath id="SVGID_20_">
					<use xlink:href="#SVGID_19_"  style="overflow:visible;"/>
				</clipPath>
				<path class="st11" d="M318.2,235.4h67V205h-67V235.4z"/>
			</g>
		</g>
		<g id="line2d_7">
			<g>
				<defs>
					<rect id="SVGID_21_" x="67.1" y="17.9" width="334.8" height="217.4"/>
				</defs>
				<clipPath id="SVGID_22_">
					<use xlink:href="#SVGID_21_"  style="overflow:visible;"/>
				</clipPath>
				<path class="st12" d="M117.3,115.7v-40"/>
			</g>
		</g>
		<g id="line2d_8">
			<g>
				<defs>
					<rect id="SVGID_23_" x="67.1" y="17.9" width="334.8" height="217.4"/>
				</defs>
				<clipPath id="SVGID_24_">
					<use xlink:href="#SVGID_23_"  style="overflow:visible;"/>
				</clipPath>
				<path class="st13" d="M114.8,115.7h5"/>
			</g>
		</g>
		<g id="line2d_9">
			<g>
				<defs>
					<rect id="SVGID_25_" x="67.1" y="17.9" width="334.8" height="217.4"/>
				</defs>
				<clipPath id="SVGID_26_">
					<use xlink:href="#SVGID_25_"  style="overflow:visible;"/>
				</clipPath>
				<path class="st14" d="M114.8,75.8h5"/>
			</g>
		</g>
		<g id="line2d_10">
			<g>
				<defs>
					<rect id="SVGID_27_" x="67.1" y="17.9" width="334.8" height="217.4"/>
				</defs>
				<clipPath id="SVGID_28_">
					<use xlink:href="#SVGID_27_"  style="overflow:visible;"/>
				</clipPath>
				<path class="st15" d="M284.7,218.8v-13.2"/>
			</g>
		</g>
		<g id="line2d_11">
			<g>
				<defs>
					<rect id="SVGID_29_" x="67.1" y="17.9" width="334.8" height="217.4"/>
				</defs>
				<clipPath id="SVGID_30_">
					<use xlink:href="#SVGID_29_"  style="overflow:visible;"/>
				</clipPath>
				<path class="st16" d="M282.2,218.8h5"/>
			</g>
		</g>
		<g id="line2d_12">
			<g>
				<defs>
					<rect id="SVGID_31_" x="67.1" y="17.9" width="334.8" height="217.4"/>
				</defs>
				<clipPath id="SVGID_32_">
					<use xlink:href="#SVGID_31_"  style="overflow:visible;"/>
				</clipPath>
				<path class="st17" d="M282.2,205.6h5"/>
			</g>
		</g>
		<g id="line2d_13">
			<g>
				<defs>
					<rect id="SVGID_33_" x="67.1" y="17.9" width="334.8" height="217.4"/>
				</defs>
				<clipPath id="SVGID_34_">
					<use xlink:href="#SVGID_33_"  style="overflow:visible;"/>
				</clipPath>
				<path class="st18" d="M184.3,129.2V28.3"/>
			</g>
		</g>
		<g id="line2d_14">
			<g>
				<defs>
					<rect id="SVGID_35_" x="67.1" y="17.9" width="334.8" height="217.4"/>
				</defs>
				<clipPath id="SVGID_36_">
					<use xlink:href="#SVGID_35_"  style="overflow:visible;"/>
				</clipPath>
				<path class="st19" d="M181.8,129.2h5"/>
			</g>
		</g>
		<g id="line2d_15">
			<g>
				<defs>
					<rect id="SVGID_37_" x="67.1" y="17.9" width="334.8" height="217.4"/>
				</defs>
				<clipPath id="SVGID_38_">
					<use xlink:href="#SVGID_37_"  style="overflow:visible;"/>
				</clipPath>
				<path class="st20" d="M181.8,28.3h5"/>
			</g>
		</g>
		<g id="line2d_16">
			<g>
				<defs>
					<rect id="SVGID_39_" x="67.1" y="17.9" width="334.8" height="217.4"/>
				</defs>
				<clipPath id="SVGID_40_">
					<use xlink:href="#SVGID_39_"  style="overflow:visible;"/>
				</clipPath>
				<path class="st21" d="M351.7,225.1v-37.6"/>
			</g>
		</g>
		<g id="line2d_17">
			<g>
				<defs>
					<rect id="SVGID_41_" x="67.1" y="17.9" width="334.8" height="217.4"/>
				</defs>
				<clipPath id="SVGID_42_">
					<use xlink:href="#SVGID_41_"  style="overflow:visible;"/>
				</clipPath>
				<path class="st22" d="M349.2,225.1h5"/>
			</g>
		</g>
		<g id="line2d_18">
			<g>
				<defs>
					<rect id="SVGID_43_" x="67.1" y="17.9" width="334.8" height="217.4"/>
				</defs>
				<clipPath id="SVGID_44_">
					<use xlink:href="#SVGID_43_"  style="overflow:visible;"/>
				</clipPath>
				<path class="st23" d="M349.2,187.5h5"/>
			</g>
		</g>
		<g id="patch_7">
			<path class="st24" d="M67.1,235.4V17.9"/>
		</g>
		<g id="patch_8">
			<path class="st24" d="M401.9,235.4V17.9"/>
		</g>
		<g id="patch_9">
			<path class="st24" d="M67.1,235.4h334.8"/>
		</g>
		<g id="patch_10">
			<path class="st24" d="M67.1,17.9h334.8"/>
		</g>
		<g id="legend_1">
			<g id="patch_11">
				<path class="st25" d="M325.4,72.7h68.8c1.5,0,2.2-0.7,2.2-2.2V25.6c0-1.5-0.7-2.2-2.2-2.2h-68.8c-1.5,0-2.2,0.7-2.2,2.2v44.8
					C323.2,72,323.9,72.7,325.4,72.7z"/>
			</g>
			<g id="text_11">
				<g transform="translate(319.196172 51.760969)scale(0.102 -0.102)">
					<g>
						<path id="ArialMT-83" class="st1" d="M132.9,185.9l8.9,0.8c0.4-3.6,1.4-6.5,3-8.8c1.6-2.3,4-4.1,7.2-5.6
							c3.3-1.4,6.9-2.1,11-2.1c3.6,0,6.8,0.5,9.6,1.6c2.8,1.1,4.8,2.5,6.2,4.4c1.4,1.9,2,3.9,2,6.1c0,2.2-0.7,4.2-2,5.9
							c-1.3,1.7-3.4,3.1-6.4,4.2c-1.9,0.8-6.2,1.9-12.8,3.5c-6.6,1.6-11.2,3.1-13.8,4.5c-3.4,1.8-6,4-7.7,6.7
							c-1.7,2.7-2.5,5.6-2.5,8.9c0,3.6,1,7,3.1,10.1c2.1,3.1,5,5.5,9,7.2c3.9,1.6,8.3,2.4,13.1,2.4c5.3,0,10-0.9,14-2.6
							c4.1-1.7,7.2-4.2,9.4-7.5c2.2-3.3,3.3-7.1,3.5-11.3l-9.1-0.7c-0.5,4.5-2.1,7.9-5,10.2c-2.8,2.3-7,3.5-12.5,3.5
							c-5.7,0-9.9-1.1-12.5-3.2c-2.6-2.1-3.9-4.6-3.9-7.6c0-2.6,0.9-4.7,2.8-6.4c1.8-1.7,6.6-3.4,14.3-5.1c7.7-1.7,13-3.3,15.8-4.6
							c4.2-1.9,7.2-4.4,9.2-7.3c2-2.9,3-6.3,3-10.2c0-3.8-1.1-7.4-3.3-10.8c-2.2-3.4-5.3-6-9.4-7.9c-4.1-1.9-8.7-2.8-13.8-2.8
							c-6.5,0-11.9,0.9-16.3,2.8c-4.4,1.9-7.8,4.7-10.3,8.5C134.3,176.8,133,181.1,132.9,185.9z"/>
					</g>
					<g>
						<path id="ArialMT-99" class="st1" d="M235.5,181.9l8.6-1.1c-0.9-6-3.4-10.6-7.3-14c-3.9-3.4-8.7-5-14.3-5
							c-7.1,0-12.8,2.3-17.1,7c-4.3,4.6-6.5,11.3-6.5,20c0,5.6,0.9,10.5,2.8,14.7c1.9,4.2,4.7,7.4,8.5,9.5c3.8,2.1,7.9,3.2,12.4,3.2
							c5.6,0,10.2-1.4,13.8-4.3c3.6-2.8,5.9-6.9,6.9-12.1l-8.5-1.3c-0.8,3.5-2.3,6.1-4.3,7.9c-2.1,1.8-4.6,2.6-7.5,2.6
							c-4.4,0-8-1.6-10.8-4.8c-2.8-3.2-4.1-8.2-4.1-15c0-7,1.3-12,4-15.2c2.7-3.2,6.2-4.7,10.5-4.7c3.4,0,6.3,1.1,8.6,3.2
							C233.5,174.3,234.9,177.5,235.5,181.9z"/>
					</g>
					<g>
						<path id="ArialMT-114_6_" class="st1" d="M251.6,162.9v51.9h7.9v-7.9c2,3.7,3.9,6.1,5.6,7.3c1.7,1.2,3.6,1.8,5.6,1.8
							c3,0,6-0.9,9-2.8l-3-8.2c-2.1,1.3-4.3,1.9-6.4,1.9c-1.9,0-3.7-0.6-5.2-1.7s-2.6-2.8-3.3-4.8c-1-3.1-1.5-6.5-1.5-10.2v-27.2
							H251.6z"/>
					</g>
					<g>
						<path id="ArialMT-101_3_" class="st1" d="M320.5,179.6l9.1-1.1c-1.4-5.3-4.1-9.4-8-12.4c-3.9-2.9-8.8-4.4-14.8-4.4
							c-7.6,0-13.6,2.3-18,7c-4.4,4.7-6.7,11.2-6.7,19.7c0,8.7,2.2,15.5,6.7,20.3c4.5,4.8,10.3,7.2,17.5,7.2c6.9,0,12.6-2.4,17-7.1
							s6.6-11.4,6.6-19.9c0-0.5,0-1.3,0-2.3h-38.7c0.3-5.7,1.9-10.1,4.8-13.1c2.9-3,6.5-4.5,10.8-4.5c3.2,0,6,0.8,8.2,2.5
							C317.4,173.2,319.2,175.9,320.5,179.6z M291.6,193.8h29c-0.4,4.4-1.5,7.6-3.3,9.8c-2.8,3.4-6.4,5.1-10.9,5.1
							c-4,0-7.4-1.3-10.2-4C293.5,202,291.9,198.4,291.6,193.8z"/>
					</g>
					<g>
						<path id="ArialMT-101_4_" class="st1" d="M376.1,179.6l9.1-1.1c-1.4-5.3-4.1-9.4-8-12.4c-3.9-2.9-8.8-4.4-14.8-4.4
							c-7.6,0-13.6,2.3-18,7c-4.4,4.7-6.7,11.2-6.7,19.7c0,8.7,2.2,15.5,6.7,20.3c4.5,4.8,10.3,7.2,17.5,7.2c6.9,0,12.6-2.4,17-7.1
							s6.6-11.4,6.6-19.9c0-0.5,0-1.3,0-2.3h-38.7c0.3-5.7,1.9-10.1,4.8-13.1c2.9-3,6.5-4.5,10.8-4.5c3.2,0,6,0.8,8.2,2.5
							C373,173.2,374.8,175.9,376.1,179.6z M347.3,193.8h29c-0.4,4.4-1.5,7.6-3.3,9.8c-2.8,3.4-6.4,5.1-10.9,5.1
							c-4,0-7.4-1.3-10.2-4C349.1,202,347.5,198.4,347.3,193.8z"/>
					</g>
					<g>
						<path id="ArialMT-110_1_" class="st1" d="M396.2,162.9v51.9h7.9v-7.4c3.8,5.7,9.3,8.5,16.5,8.5c3.1,0,6-0.6,8.6-1.7
							s4.6-2.6,5.9-4.4c1.3-1.8,2.2-4,2.7-6.5c0.3-1.6,0.5-4.5,0.5-8.5v-31.9h-8.8v31.5c0,3.6-0.3,6.3-1,8c-0.7,1.8-1.9,3.2-3.6,4.2
							c-1.7,1.1-3.8,1.6-6.1,1.6c-3.8,0-7-1.2-9.7-3.6s-4.1-6.9-4.1-13.5v-28.3H396.2z"/>
					</g>
					<g>
						<path id="ArialMT-32_4_" class="st1" d="M445.3,162.9"/>
					</g>
					<g>
						<path id="ArialMT-83_1_" class="st1" d="M477.5,185.9l8.9,0.8c0.4-3.6,1.4-6.5,3-8.8c1.6-2.3,4-4.1,7.2-5.6
							c3.3-1.4,6.9-2.1,11-2.1c3.6,0,6.8,0.5,9.6,1.6c2.8,1.1,4.8,2.5,6.2,4.4c1.4,1.9,2,3.9,2,6.1c0,2.2-0.7,4.2-2,5.9
							c-1.3,1.7-3.4,3.1-6.4,4.2c-1.9,0.8-6.2,1.9-12.8,3.5c-6.6,1.6-11.2,3.1-13.8,4.5c-3.4,1.8-6,4-7.7,6.7
							c-1.7,2.7-2.5,5.6-2.5,8.9c0,3.6,1,7,3.1,10.1c2.1,3.1,5,5.5,9,7.2c3.9,1.6,8.3,2.4,13.1,2.4c5.3,0,10-0.9,14-2.6
							c4.1-1.7,7.2-4.2,9.4-7.5c2.2-3.3,3.3-7.1,3.5-11.3l-9.1-0.7c-0.5,4.5-2.1,7.9-5,10.2c-2.8,2.3-7,3.5-12.5,3.5
							c-5.7,0-9.9-1.1-12.5-3.2c-2.6-2.1-3.9-4.6-3.9-7.6c0-2.6,0.9-4.7,2.8-6.4c1.8-1.7,6.6-3.4,14.3-5.1c7.7-1.7,13-3.3,15.8-4.6
							c4.2-1.9,7.2-4.4,9.2-7.3c2-2.9,3-6.3,3-10.2c0-3.8-1.1-7.4-3.3-10.8c-2.2-3.4-5.3-6-9.4-7.9c-4.1-1.9-8.7-2.8-13.8-2.8
							c-6.5,0-11.9,0.9-16.3,2.8c-4.4,1.9-7.8,4.7-10.3,8.5C479,176.8,477.7,181.1,477.5,185.9z"/>
					</g>
					<g>
						<path id="ArialMT-105_2_" class="st1" d="M546.4,224.4v10.1h8.8v-10.1H546.4z M546.4,162.9v51.9h8.8v-51.9H546.4z"/>
					</g>
					<g>
						<path id="ArialMT-122" class="st1" d="M563.9,162.9v7.1l33,37.9c-3.8-0.2-7.1-0.3-9.9-0.3h-21.1v7.1h42.4V209l-28.1-32.9
							l-5.4-6c3.9,0.3,7.6,0.4,11.1,0.4h24v-7.6H563.9z"/>
					</g>
					<g>
						<path id="ArialMT-101_5_" class="st1" d="M654,179.6l9.1-1.1c-1.4-5.3-4.1-9.4-8-12.4c-3.9-2.9-8.8-4.4-14.8-4.4
							c-7.6,0-13.6,2.3-18,7c-4.4,4.7-6.7,11.2-6.7,19.7c0,8.7,2.2,15.5,6.7,20.3c4.5,4.8,10.3,7.2,17.5,7.2c6.9,0,12.6-2.4,17-7.1
							s6.6-11.4,6.6-19.9c0-0.5,0-1.3,0-2.3h-38.7c0.3-5.7,1.9-10.1,4.8-13.1c2.9-3,6.5-4.5,10.8-4.5c3.2,0,6,0.8,8.2,2.5
							C650.9,173.2,652.7,175.9,654,179.6z M625.2,193.8h29c-0.4,4.4-1.5,7.6-3.3,9.8c-2.8,3.4-6.4,5.1-10.9,5.1
							c-4,0-7.4-1.3-10.2-4C627,202,625.5,198.4,625.2,193.8z"/>
					</g>
				</g>
			</g>
			<g id="patch_12">
				<path class="st26" d="M327.6,50.5h22v-7.7h-22V50.5z"/>
			</g>
			<g id="text_12">
				<g transform="translate(345.284688 67.161812)scale(0.11 -0.11)">
					<g>
						<path id="ArialMT-51" class="st1" d="M123.3,170l8.8,1.2c1-5,2.7-8.6,5.2-10.8c2.4-2.2,5.4-3.3,8.9-3.3
							c4.1,0,7.6,1.4,10.5,4.3c2.9,2.9,4.3,6.4,4.3,10.7c0,4-1.3,7.4-4,10c-2.6,2.6-6,3.9-10.1,3.9c-1.7,0-3.7-0.3-6.2-1l1,7.7
							c0.6-0.1,1.1-0.1,1.4-0.1c3.8,0,7.1,1,10.1,2.9c3,2,4.5,5,4.5,9c0,3.2-1.1,5.9-3.3,8c-2.2,2.1-5,3.2-8.4,3.2
							c-3.4,0-6.3-1.1-8.5-3.2c-2.3-2.1-3.7-5.4-4.4-9.7l-8.8,1.6c1.1,5.9,3.5,10.4,7.3,13.7c3.8,3.2,8.6,4.9,14.2,4.9
							c3.9,0,7.5-0.8,10.8-2.5c3.3-1.7,5.8-4,7.5-6.9c1.8-2.9,2.6-6,2.6-9.2c0-3.1-0.8-5.9-2.5-8.4c-1.7-2.5-4.1-4.6-7.4-6.1
							c4.2-1,7.5-3,9.9-6.1c2.3-3.1,3.5-6.9,3.5-11.5c0-6.2-2.3-11.5-6.8-15.9c-4.6-4.3-10.3-6.5-17.3-6.5c-6.3,0-11.5,1.9-15.7,5.6
							C126.2,159.2,123.9,164,123.3,170z"/>
					</g>
					<g>
						<path id="ArialMT-56" class="st1" d="M192.4,189.9c-3.6,1.3-6.3,3.2-8.1,5.7c-1.8,2.5-2.6,5.4-2.6,8.9c0,5.2,1.9,9.6,5.6,13.1
							c3.8,3.6,8.7,5.3,14.9,5.3c6.2,0,11.3-1.8,15.1-5.5c3.8-3.6,5.7-8,5.7-13.2c0-3.3-0.9-6.2-2.6-8.7c-1.7-2.4-4.4-4.3-7.9-5.7
							c4.4-1.4,7.7-3.7,10-6.9c2.3-3.2,3.4-7,3.4-11.4c0-6.1-2.2-11.3-6.5-15.4c-4.3-4.2-10-6.2-17.1-6.2s-12.8,2.1-17.1,6.3
							c-4.3,4.2-6.5,9.4-6.5,15.7c0,4.7,1.2,8.6,3.5,11.7C184.6,186.6,188,188.7,192.4,189.9z M190.6,204.8c0-3.4,1.1-6.2,3.3-8.3
							c2.2-2.1,5-3.2,8.5-3.2c3.4,0,6.2,1.1,8.3,3.2c2.2,2.1,3.2,4.8,3.2,7.8c0,3.2-1.1,5.9-3.4,8.1c-2.2,2.2-5,3.3-8.3,3.3
							c-3.4,0-6.1-1.1-8.4-3.2C191.7,210.3,190.6,207.8,190.6,204.8z M187.8,171.7c0-2.5,0.6-4.9,1.8-7.3s3-4.2,5.3-5.5
							c2.3-1.3,4.9-1.9,7.6-1.9c4.2,0,7.7,1.3,10.4,4c2.7,2.7,4.1,6.1,4.1,10.3c0,4.2-1.4,7.7-4.2,10.5s-6.3,4.2-10.6,4.2
							c-4.1,0-7.6-1.4-10.3-4.1C189.1,179.2,187.8,175.8,187.8,171.7z"/>
					</g>
					<g>
						<path id="ArialMT-32_5_" class="st1" d="M230.3,151.1"/>
					</g>
					<g>
						<path id="ArialMT-109_1_" class="st1" d="M264.7,151.1v51.9h7.9v-7.3c1.6,2.5,3.8,4.6,6.5,6.1c2.7,1.6,5.8,2.3,9.2,2.3
							c3.8,0,7-0.8,9.5-2.4c2.5-1.6,4.2-3.8,5.2-6.7c4.1,6.1,9.4,9.1,16,9.1c5.1,0,9.1-1.4,11.9-4.3c2.8-2.8,4.2-7.2,4.2-13.2v-35.6
							h-8.8v32.7c0,3.5-0.3,6-0.9,7.6c-0.6,1.6-1.6,2.8-3.1,3.7c-1.5,0.9-3.2,1.4-5.3,1.4c-3.6,0-6.7-1.2-9.1-3.6
							c-2.4-2.4-3.6-6.3-3.6-11.6v-30.1h-8.8v33.7c0,3.9-0.7,6.8-2.2,8.8c-1.4,2-3.8,2.9-7,2.9c-2.5,0-4.8-0.7-6.9-2
							c-2.1-1.3-3.6-3.2-4.6-5.7c-0.9-2.5-1.4-6.1-1.4-10.8v-26.9H264.7z"/>
					</g>
					<g>
						<path id="ArialMT-109_2_" class="st1" d="M348,151.1v51.9h7.9v-7.3c1.6,2.5,3.8,4.6,6.5,6.1c2.7,1.6,5.8,2.3,9.2,2.3
							c3.8,0,7-0.8,9.5-2.4c2.5-1.6,4.2-3.8,5.2-6.7c4.1,6.1,9.4,9.1,16,9.1c5.1,0,9.1-1.4,11.9-4.3c2.8-2.8,4.2-7.2,4.2-13.2v-35.6
							h-8.8v32.7c0,3.5-0.3,6-0.9,7.6c-0.6,1.6-1.6,2.8-3.1,3.7c-1.5,0.9-3.2,1.4-5.3,1.4c-3.6,0-6.7-1.2-9.1-3.6
							c-2.4-2.4-3.6-6.3-3.6-11.6v-30.1h-8.8v33.7c0,3.9-0.7,6.8-2.2,8.8c-1.4,2-3.8,2.9-7,2.9c-2.5,0-4.8-0.7-6.9-2
							c-2.1-1.3-3.6-3.2-4.6-5.7c-0.9-2.5-1.4-6.1-1.4-10.8v-26.9H348z"/>
					</g>
				</g>
			</g>
			<g id="patch_13">
				<path class="st27" d="M327.6,66.1h22v-7.7h-22V66.1z"/>
			</g>
			<g id="text_13">
				<g transform="translate(345.284688 82.721656)scale(0.11 -0.11)">
					<g>
						<path id="ArialMT-52" class="st1" d="M151.4,151.1v17.1h-31.1v8.1l32.7,46.4h7.2v-46.4h9.7v-8.1h-9.7v-17.1H151.4z
							 M151.4,176.3v32.3L129,176.3H151.4z"/>
					</g>
					<g>
						<path id="ArialMT-50_2_" class="st1" d="M225,159.5v-8.5h-47.3c-0.1,2.1,0.3,4.2,1,6.1c1.2,3.2,3.1,6.4,5.8,9.5
							c2.7,3.1,6.5,6.7,11.5,10.8c7.8,6.4,13,11.4,15.8,15.2c2.7,3.7,4.1,7.3,4.1,10.6c0,3.5-1.2,6.4-3.8,8.8
							c-2.5,2.4-5.7,3.6-9.7,3.6c-4.2,0-7.6-1.3-10.2-3.8c-2.5-2.5-3.8-6-3.9-10.5l-9,0.9c0.6,6.7,2.9,11.9,7,15.4
							c4,3.5,9.5,5.3,16.3,5.3c6.9,0,12.3-1.9,16.3-5.7c4-3.8,6-8.5,6-14.2c0-2.9-0.6-5.7-1.8-8.5c-1.2-2.8-3.1-5.7-5.8-8.7
							s-7.2-7.3-13.5-12.6c-5.3-4.4-8.7-7.4-10.2-9c-1.5-1.6-2.7-3.2-3.7-4.8H225z"/>
					</g>
					<g>
						<path id="ArialMT-32_6_" class="st1" d="M230.3,151.1"/>
					</g>
					<g>
						<path id="ArialMT-109_3_" class="st1" d="M264.7,151.1v51.9h7.9v-7.3c1.6,2.5,3.8,4.6,6.5,6.1c2.7,1.6,5.8,2.3,9.2,2.3
							c3.8,0,7-0.8,9.5-2.4c2.5-1.6,4.2-3.8,5.2-6.7c4.1,6.1,9.4,9.1,16,9.1c5.1,0,9.1-1.4,11.9-4.3c2.8-2.8,4.2-7.2,4.2-13.2v-35.6
							h-8.8v32.7c0,3.5-0.3,6-0.9,7.6c-0.6,1.6-1.6,2.8-3.1,3.7c-1.5,0.9-3.2,1.4-5.3,1.4c-3.6,0-6.7-1.2-9.1-3.6
							c-2.4-2.4-3.6-6.3-3.6-11.6v-30.1h-8.8v33.7c0,3.9-0.7,6.8-2.2,8.8c-1.4,2-3.8,2.9-7,2.9c-2.5,0-4.8-0.7-6.9-2
							c-2.1-1.3-3.6-3.2-4.6-5.7c-0.9-2.5-1.4-6.1-1.4-10.8v-26.9H264.7z"/>
					</g>
					<g>
						<path id="ArialMT-109_4_" class="st1" d="M348,151.1v51.9h7.9v-7.3c1.6,2.5,3.8,4.6,6.5,6.1c2.7,1.6,5.8,2.3,9.2,2.3
							c3.8,0,7-0.8,9.5-2.4c2.5-1.6,4.2-3.8,5.2-6.7c4.1,6.1,9.4,9.1,16,9.1c5.1,0,9.1-1.4,11.9-4.3c2.8-2.8,4.2-7.2,4.2-13.2v-35.6
							h-8.8v32.7c0,3.5-0.3,6-0.9,7.6c-0.6,1.6-1.6,2.8-3.1,3.7c-1.5,0.9-3.2,1.4-5.3,1.4c-3.6,0-6.7-1.2-9.1-3.6
							c-2.4-2.4-3.6-6.3-3.6-11.6v-30.1h-8.8v33.7c0,3.9-0.7,6.8-2.2,8.8c-1.4,2-3.8,2.9-7,2.9c-2.5,0-4.8-0.7-6.9-2
							c-2.1-1.3-3.6-3.2-4.6-5.7c-0.9-2.5-1.4-6.1-1.4-10.8v-26.9H348z"/>
					</g>
				</g>
			</g>
		</g>
	</g>
</g>
</svg>
